<svg xmlns="http://www.w3.org/2000/svg" viewBox="0 0 154.75 155.02"><defs><style>.cls-1{fill:#3f3f3f;}</style></defs><g id="Lager_2" data-name="Lager 2"><g id="Layer_1" data-name="Layer 1"><path class="cls-1" d="M154.68,85.36h0l0-.14h0c-.17-.94-.32-1.77-.45-2.52s-.23-1.4-.35-2a15.54,15.54,0,0,1-.28-3.19h0a15.29,15.29,0,0,1,.26-3.25c.12-.62.22-1.29.35-2s.29-1.61.46-2.57h0s0-.1,0-.14h0a7.13,7.13,0,0,0,0-1.79,6.77,6.77,0,0,0-.46-1.73h0l-.05-.13h0c-.4-.86-.75-1.63-1.06-2.32s-.56-1.31-.83-1.87a15.32,15.32,0,0,1-1.07-3h0a16,16,0,0,1-.55-3.22c0-.63-.12-1.3-.18-2.07s-.12-1.63-.2-2.61h0l0-.14h0a7.26,7.26,0,0,0-.43-1.74,6.57,6.57,0,0,0-.88-1.56h0l-.09-.11h0c-2.38-3-3.73-4.49-4.67-6.24l-3.68,2,3.68-2a14.9,14.9,0,0,1-1.32-3c-.23-.58-.45-1.22-.7-2s-.5-1.56-.86-2.47h0l-.05-.13h0a6.76,6.76,0,0,0-.84-1.59,6.53,6.53,0,0,0-.58-.7,7.32,7.32,0,0,0-.67-.58h0l-.11-.09h0l-2-1.54c-.6-.45-1.16-.84-1.64-1.22s-.91-.72-1.3-1.08-.77-.68-1.1-1l-6.13,5.76a8,8,0,0,1,.85,1,14,14,0,0,1,.76,1.3c.25.48.52,1,.78,1.62s.52,1.3.81,2.07h0l.05.12h0a5.42,5.42,0,0,0,.32.69,4.4,4.4,0,0,0,.39.66,5.32,5.32,0,0,0,1.07,1.1h0l.1.08h0a22.49,22.49,0,0,1,1.75,1.45c.51.44.95.85,1.35,1.24A12.23,12.23,0,0,1,136.82,45h0c.83,1.55,1.24,3.36,1.61,6.63h0v.13h0a4.94,4.94,0,0,0,.34,1.5,5.13,5.13,0,0,0,.77,1.32h0l.07.09h0c.5.68.93,1.29,1.32,1.85a16.6,16.6,0,0,1,1,1.54,11.63,11.63,0,0,1,1.12,2.68h0a12.08,12.08,0,0,1,.28,2.82,17.71,17.71,0,0,1-.13,1.8c-.07.66-.15,1.39-.26,2.2h0l0,.12h0a5.22,5.22,0,0,0,0,1.53,5,5,0,0,0,.43,1.48h0a.37.37,0,0,1,.05.11h0c.31.78.58,1.48.82,2.12a15.86,15.86,0,0,1,.57,1.74,12.6,12.6,0,0,1,.42,2.87h0a12.88,12.88,0,0,1-.44,2.82,13.49,13.49,0,0,1-.56,1.71c-.23.62-.5,1.31-.8,2.07h0l0,.11h0a5.18,5.18,0,0,0-.42,1.47,4.89,4.89,0,0,0,0,1.53h0l0,.13h0c.13.83.2,1.57.27,2.25q.06.51.09,1c0,.31,0,.6,0,.87a12.59,12.59,0,0,1-.31,2.88l4.07,1-4.07-1a11.85,11.85,0,0,1-1.12,2.61,15,15,0,0,1-1,1.52c-.38.54-.8,1.14-1.28,1.8h0l-.08.1h0a5.05,5.05,0,0,0-1.11,2.81h0s0,.08,0,.12h0c-.11.84-.2,1.58-.3,2.26-.05.33-.1.65-.15,1s-.13.58-.2.84a13.45,13.45,0,0,1-.44,1.46,6.82,6.82,0,0,1-.58,1.25h0a12.15,12.15,0,0,1-1.72,2.25c-.39.39-.83.79-1.33,1.23l-.79.68-.43.37-.48.37h0l-.1.07h0a5,5,0,0,0-1.06,1.1,6,6,0,0,0-.71,1.35h0l0,.12h0c-.3.78-.58,1.49-.83,2.12a18,18,0,0,1-.8,1.64,14.4,14.4,0,0,1-.78,1.32,7,7,0,0,1-.88,1h0a12.76,12.76,0,0,1-1,.91c-.18.14-.37.29-.57.43l-.66.42c-.47.27-1,.56-1.58.86s-1.26.62-2,1h0l-.12,0h0a5,5,0,0,0-1.3.81,5.71,5.71,0,0,0-1,1.12h0l-.06.1h0l-.68,1c-.22.32-.43.61-.64.87-.42.52-.81,1-1.18,1.4a9.59,9.59,0,0,1-2.2,1.88l4.51,7.1a21.06,21.06,0,0,1,2.9-1.51c.57-.26,1.2-.52,1.92-.8l1.13-.47,1.27-.55h0l.13-.06h0a6.26,6.26,0,0,0,1.54-.93,6.81,6.81,0,0,0,1.19-1.34h0l.08-.11h0c.54-.79,1-1.48,1.41-2.13s.78-1.2,1.12-1.7l.51-.72.48-.66a14.24,14.24,0,0,1,1-1.16l-3.07-2.88,3.07,2.89c.34-.38.72-.72,1.11-1.08a15.69,15.69,0,0,1,1.32-1.11c.48-.38,1.05-.77,1.66-1.24l2.08-1.58h0l.12-.08h0a5.68,5.68,0,0,0,1.25-1.29,7.15,7.15,0,0,0,.84-1.59h0l0-.14h0l.24-.65.21-.62c.13-.4.26-.78.38-1.14.24-.72.46-1.35.68-1.92a16,16,0,0,1,1.27-3l-3.68-2,3.68,2c.26-.44.5-.88.79-1.33s.63-.9,1-1.39l.62-.76.67-.87c.49-.6,1-1.27,1.64-2h0l.09-.11h0a7.21,7.21,0,0,0,.87-1.57,7.3,7.3,0,0,0,.43-1.73h0l0-.14h0c.07-1,.13-1.8.19-2.56s.13-1.41.17-2a16.06,16.06,0,0,1,.51-3.16h0a15.62,15.62,0,0,1,1.07-3.09q.19-.43.39-.9l.44-1c.31-.71.69-1.49,1.08-2.39h0l.05-.13h0a7,7,0,0,0,.46-1.73A6.68,6.68,0,0,0,154.68,85.36Zm-22.75-54.7a6.3,6.3,0,0,0-1.78,2.59c-.07.2-.12.39-.17.56s-.07.31-.09.43l-.06.39h0v-.11a1.55,1.55,0,0,1,0-.29,2.92,2.92,0,0,1,.05-.45,3.76,3.76,0,0,1,.12-.58,6.13,6.13,0,0,1,.61-1.41,6.59,6.59,0,0,1,1.14-1.36,5.53,5.53,0,0,1,.74-.53,4.8,4.8,0,0,1,.78-.4,5.2,5.2,0,0,1,1.52-.36,4.41,4.41,0,0,1,.63,0l.48.05a1.41,1.41,0,0,1,.31.06l.11,0v0l-.41,0h-.47a4.68,4.68,0,0,0-.6.06,5.45,5.45,0,0,0-1.44.41A5.85,5.85,0,0,0,131.93,30.66Zm1,6.61a3.38,3.38,0,0,1-.59-2.41,3.46,3.46,0,0,1,1.26-2.24,3.22,3.22,0,0,1,2.48-.68,3.27,3.27,0,0,1,2.27,1.38A3.47,3.47,0,0,1,139,35.9a3.23,3.23,0,0,1-1.42,2.16,3.46,3.46,0,0,1-2.5.51A3.26,3.26,0,0,1,132.91,37.27Zm3,4a5.8,5.8,0,0,1-.6,0l-.45,0-.39-.06v0h.35a6.36,6.36,0,0,0,4.08-.86,5.51,5.51,0,0,0,2.5-3.33c.07-.22.12-.35.12-.35h0a3.24,3.24,0,0,1-.09.4c0,.13-.08.28-.13.46a5.53,5.53,0,0,1-1.06,1.8,5.63,5.63,0,0,1-1.31,1.1,6.2,6.2,0,0,1-1.58.67A6.7,6.7,0,0,1,135.94,41.23Zm4.56,5.35a5.59,5.59,0,0,0-1,1.11c-.12.17-.23.35-.32.5s-.16.29-.21.4-.16.36-.16.36h0l0-.1a2.75,2.75,0,0,1,.09-.28c0-.12.1-.26.17-.43s.16-.35.27-.54a5.91,5.91,0,0,1,.93-1.2,6.16,6.16,0,0,1,1.45-1,5.05,5.05,0,0,1,.84-.33,5.6,5.6,0,0,1,.86-.2,5.42,5.42,0,0,1,1.57,0,3.69,3.69,0,0,1,.6.16l.45.17c.12,0,.21.11.27.14l.1,0v0l-.38-.14-.45-.12A4.52,4.52,0,0,0,145,45a6,6,0,0,0-1.51.05,5.74,5.74,0,0,0-1.61.53A6.09,6.09,0,0,0,140.5,46.58ZM141,51a3.69,3.69,0,0,1,.25-1.23A3.49,3.49,0,0,1,143,47.94a3.22,3.22,0,0,1,2.58-.06,3.27,3.27,0,0,1,1.11.74,3.44,3.44,0,0,1,.74,1.17,3.54,3.54,0,0,1,.26,1.37,3,3,0,0,1-.29,1.29,3.28,3.28,0,0,1-1.91,1.74,3.44,3.44,0,0,1-2.55-.13,3.88,3.88,0,0,1-1-.72,3.11,3.11,0,0,1-.7-1.07A3.25,3.25,0,0,1,141,51Zm1.6,5.69-.43-.16-.36-.15v0l.34.1a6.51,6.51,0,0,0,2,.44,6,6,0,0,0,2.13-.25,5.86,5.86,0,0,0,1.92-1A5.46,5.46,0,0,0,149.54,54l.21-.3,0,0-.19.36c-.06.12-.15.25-.24.41A6,6,0,0,1,149,55a5.61,5.61,0,0,1-1.12,1,5.88,5.88,0,0,1-1.56.73,6.25,6.25,0,0,1-1.69.26,7.29,7.29,0,0,1-1.48-.16Zm2,7.71c-.12.13-.23.24-.31.34a3.89,3.89,0,0,0-.24.31l0,0,.06-.09a1.6,1.6,0,0,1,.15-.25c.07-.1.16-.23.27-.37a3.28,3.28,0,0,1,.41-.45,6.12,6.12,0,0,1,1.21-.94,6.68,6.68,0,0,1,1.65-.65,6.88,6.88,0,0,1,.9-.1,6.54,6.54,0,0,1,.89,0,5.1,5.1,0,0,1,1.5.43,4.52,4.52,0,0,1,.54.3c.15.1.28.19.39.28l.23.2.08.08v0l-.34-.23-.41-.23a6,6,0,0,0-.55-.24,4.92,4.92,0,0,0-1.45-.33,5.78,5.78,0,0,0-1.7.11,6.12,6.12,0,0,0-1.59.57A6.2,6.2,0,0,0,145,64C144.83,64.15,144.69,64.29,144.57,64.41Zm6.84,6.18a3.24,3.24,0,0,1-2.28,1.2,3.47,3.47,0,0,1-3.68-2.93,3.23,3.23,0,0,1,.11-1.28,4.24,4.24,0,0,1,.23-.59,4.15,4.15,0,0,1,.32-.53,3.43,3.43,0,0,1,2.17-1.35,3.24,3.24,0,0,1,2.52.6,4.14,4.14,0,0,1,.5.44,3.57,3.57,0,0,1,.81,1.87A3.3,3.3,0,0,1,151.41,70.59ZM145,73l0,0,.31.18a6.35,6.35,0,0,0,4,1.22,5.46,5.46,0,0,0,3.81-1.71l.27-.24,0,0-.27.31a3.64,3.64,0,0,1-.34.33,5.13,5.13,0,0,1-.47.38,5.41,5.41,0,0,1-1.34.69,5.83,5.83,0,0,1-1.68.33,6.06,6.06,0,0,1-3.09-.7,4.84,4.84,0,0,1-.52-.29l-.38-.25Zm-22.47,65.75-.41-.07a4.22,4.22,0,0,1-.46-.11l-.57-.2a5.73,5.73,0,0,1-1.31-.75,6.34,6.34,0,0,1-1.18-1.24,6.72,6.72,0,0,1-.77-1.54,7.52,7.52,0,0,1-.31-1.46c0-.21,0-.41,0-.59s0-.32,0-.45,0-.38,0-.38h0v.35a6.29,6.29,0,0,0,1.1,4,5.57,5.57,0,0,0,3.5,2.3l.35.11Zm4.28-5.82a3.45,3.45,0,0,1-3.79,3.14,3.21,3.21,0,0,1-2.22-1.27,3.49,3.49,0,0,1-.68-2.48,3.25,3.25,0,0,1,1.17-2.19,3.18,3.18,0,0,1,2.37-.75A3.57,3.57,0,0,1,126,130.5,3.18,3.18,0,0,1,126.8,132.93Zm2.72-.36c0,.13,0,.24,0,.31l0,.11h0s0-.15,0-.41a4.38,4.38,0,0,0,0-.47q0-.27-.09-.6a5.55,5.55,0,0,0-1.5-2.77,6,6,0,0,0-1.35-1,6.44,6.44,0,0,0-1.36-.59l-.57-.14-.44-.07a3.65,3.65,0,0,0-.39,0v0h.39l.46,0a3.64,3.64,0,0,1,.6.09,5.8,5.8,0,0,1,1.44.53,6.32,6.32,0,0,1,1.44,1.05,6.64,6.64,0,0,1,.58.71,4.74,4.74,0,0,1,.44.75,4.89,4.89,0,0,1,.44,1.49,3.44,3.44,0,0,1,.05.62C129.54,132.28,129.54,132.44,129.52,132.57Zm6.42-6.86h-.48l-.61-.06a5.51,5.51,0,0,1-1.45-.41,5.92,5.92,0,0,1-1.46-.91,6.41,6.41,0,0,1-1.78-2.63c-.07-.2-.12-.39-.17-.56s-.07-.31-.09-.44-.06-.38-.06-.38h0l.1.34a6.23,6.23,0,0,0,2,3.6,5.69,5.69,0,0,0,4,1.37h.36v0A2.88,2.88,0,0,1,135.94,125.71Zm2.49-4.15a3.36,3.36,0,0,1-2.28,1.39,3.22,3.22,0,0,1-2.48-.69,3.44,3.44,0,0,1-1.26-2.23,3.39,3.39,0,0,1,.59-2.41,3.21,3.21,0,0,1,2.13-1.3,3.43,3.43,0,0,1,2.5.5,3.29,3.29,0,0,1,1.43,2.16A3.56,3.56,0,0,1,138.43,121.56Zm2.88-4.67a4.43,4.43,0,0,1,.19.59c0,.18.07.34.09.47a2.62,2.62,0,0,1,0,.31v.11h0a3.24,3.24,0,0,0-.09-.4,4.39,4.39,0,0,0-.14-.45,4.06,4.06,0,0,0-.23-.55,5.17,5.17,0,0,0-.83-1.24,6.28,6.28,0,0,0-1.3-1.08,6.14,6.14,0,0,0-1.57-.67,6.36,6.36,0,0,0-1.47-.23,5.8,5.8,0,0,0-.59,0l-.45,0-.38.06v0l.1,0a1.43,1.43,0,0,1,.28-.08l.45-.09a5.19,5.19,0,0,1,.61,0,5.73,5.73,0,0,1,1.53.16,6.06,6.06,0,0,1,1.65.66,5.51,5.51,0,0,1,.73.54,5.28,5.28,0,0,1,.63.62A5.06,5.06,0,0,1,141.31,116.89Zm4.79-7.19a3.52,3.52,0,0,1-.45.13c-.18,0-.38.08-.6.11a5.67,5.67,0,0,1-3.15-.57,6.12,6.12,0,0,1-1.4-1,6.34,6.34,0,0,1-1-1.12c-.12-.18-.22-.36-.31-.51s-.16-.29-.21-.41a3.62,3.62,0,0,1-.16-.36h0l.18.31a6.45,6.45,0,0,0,2.89,3,5.52,5.52,0,0,0,4.17.33l.35-.08v0A3.68,3.68,0,0,1,146.1,109.7Zm1.38-4.64a3.32,3.32,0,0,1-1.84,1.92,3.29,3.29,0,0,1-2.59,0,3.45,3.45,0,0,1-1.77-1.84,3.26,3.26,0,0,1,1.69-4.28,3.49,3.49,0,0,1,2.55-.14,3.24,3.24,0,0,1,1.92,1.74A3.3,3.3,0,0,1,147.48,105.06Zm2.29-3.87a3.51,3.51,0,0,0-.19-.36,3.83,3.83,0,0,0-.24-.4A6,6,0,0,0,149,100a5.27,5.27,0,0,0-1.12-1,6,6,0,0,0-3.22-1,6.65,6.65,0,0,0-1.47.15c-.21,0-.4.09-.57.14l-.43.15-.36.16v0l.09,0a1.46,1.46,0,0,1,.25-.15,4.5,4.5,0,0,1,.42-.19,4.6,4.6,0,0,1,.57-.21,6.45,6.45,0,0,1,1.51-.24,6.81,6.81,0,0,1,1.76.23,7.76,7.76,0,0,1,.84.34,5.64,5.64,0,0,1,.76.45,5.07,5.07,0,0,1,1.12,1.09,3.5,3.5,0,0,1,.33.53,4.13,4.13,0,0,1,.21.43c.05.12.08.22.11.29l0,.1ZM152,91.67l-.41.23a5.87,5.87,0,0,1-.55.25,5.3,5.3,0,0,1-1.46.35,6.29,6.29,0,0,1-1.72-.1,6.36,6.36,0,0,1-1.6-.59A7.32,7.32,0,0,1,145,91l-.43-.41-.3-.34L144,89.9l0,0,.25.25a6.87,6.87,0,0,0,1.57,1.36,6,6,0,0,0,2,.8,5.43,5.43,0,0,0,2.16,0,5.25,5.25,0,0,0,1.94-.76l.33-.16,0,0ZM145.47,86a3.46,3.46,0,0,1,1.23-2.16,3.4,3.4,0,0,1,2.44-.77,3.25,3.25,0,0,1,2.9,2.37,3.57,3.57,0,0,1,.09,1.39,3.38,3.38,0,0,1-1.3,2.31,3.25,3.25,0,0,1-2.52.6,3.38,3.38,0,0,1-2.17-1.34A3.33,3.33,0,0,1,145.47,86Zm7.91-3.49a4,4,0,0,0-.27-.31l-.33-.32c-.14-.12-.3-.25-.47-.37a5.25,5.25,0,0,0-1.34-.68,5.75,5.75,0,0,0-1.67-.32,6.26,6.26,0,0,0-1.69.17,6.33,6.33,0,0,0-1.38.5c-.2.1-.37.2-.52.29l-.38.25L145,82l0,0,.07-.07a2,2,0,0,1,.21-.21l.36-.29a3.76,3.76,0,0,1,.51-.34,5.28,5.28,0,0,1,1.39-.61,6.34,6.34,0,0,1,1.76-.22,7.09,7.09,0,0,1,.91.12,5.47,5.47,0,0,1,.84.25,4.91,4.91,0,0,1,1.36.78,3.75,3.75,0,0,1,.45.42c.12.14.23.26.31.37a2.83,2.83,0,0,1,.17.25l.06.09Z"/><path class="cls-1" d="M148.48,88.83a2.32,2.32,0,0,0,1.8-.46,2.5,2.5,0,0,0,.93-1.66,2.46,2.46,0,0,0-.49-1.83,2.42,2.42,0,0,0-3.41-.34,2.35,2.35,0,0,0-.91,1.58,2.33,2.33,0,0,0,.49,1.75A2.53,2.53,0,0,0,148.48,88.83Zm-1.55-2.61A1.94,1.94,0,0,1,149,84.58a1.88,1.88,0,1,1-.46,3.74A1.91,1.91,0,0,1,146.93,86.22Z"/><path class="cls-1" d="M145.23,101.56a2.46,2.46,0,0,0-1.85.08,2.35,2.35,0,0,0-1.23,3.12,2.41,2.41,0,0,0,1.29,1.32,2.38,2.38,0,0,0,1.87,0,2.53,2.53,0,0,0,1.29-3.28A2.4,2.4,0,0,0,145.23,101.56Zm.87,3a1.84,1.84,0,0,1-2.45,1.06,1.89,1.89,0,0,1,1.39-3.51A1.85,1.85,0,0,1,146.1,104.56Z"/><path class="cls-1" d="M137.12,117.61a2.39,2.39,0,0,0-3.75,1.41,2.54,2.54,0,0,0-.05.91,2.49,2.49,0,0,0,.93,1.6,2.37,2.37,0,0,0,1.8.48,2.68,2.68,0,0,0,.9-.31,2.49,2.49,0,0,0,.17-4.09Zm.09,3.12a1.86,1.86,0,0,1-2.65.4,1.93,1.93,0,0,1-.39-2.62,1.9,1.9,0,0,1,2.61-.43A1.88,1.88,0,0,1,137.21,120.73Z"/><path class="cls-1" d="M121.88,130.85a2.42,2.42,0,1,0,3.38.27A2.42,2.42,0,0,0,121.88,130.85Zm2.72,3.34a1.88,1.88,0,1,1-2.4-2.9,1.87,1.87,0,0,1,2.62.21A1.9,1.9,0,0,1,124.6,134.19Z"/><path class="cls-1" d="M112.64,135.15c-.43.18-.9.34-1.42.5s-1.09.31-1.73.47-1.38.26-2.19.4h0l-.12,0h0a6.67,6.67,0,0,0-1.46.46,5,5,0,0,0-1.27.83h0l-.09.08h0l-.91.8-.84.65c-.53.42-1,.77-1.48,1.09l-.34.22-.33.19c-.22.13-.44.24-.65.34a11.36,11.36,0,0,1-1.28.51l1,3.14-1-3.14a9.37,9.37,0,0,1-2.8.46l-.85,0a7.69,7.69,0,0,1-1,0c-.66,0-1.4-.08-2.22-.14h-.12c-.25,0-.5,0-.75,0a4.9,4.9,0,0,0-.77.08,5.07,5.07,0,0,0-1.45.49h0l-.11.06h0c-.75.41-1.44.69-2.06,1s-1.18.49-1.7.68a11,11,0,0,1-2.84.58l.26,4.2-.26-4.2c-.22,0-.44,0-.67,0s-.45,0-.68-.05c-.46,0-1-.13-1.48-.24a17,17,0,0,1-1.75-.43l-2.12-.69h0l-.11,0h0a6,6,0,0,0-.73-.19,6.5,6.5,0,0,0-.77-.12,5.13,5.13,0,0,0-1.52.12h0l-.12,0h0l-1.18.26-1.06.17c-.67.1-1.27.18-1.82.23a8.72,8.72,0,0,1-1.52,0,9.86,9.86,0,0,1-1.37-.17h0a9.48,9.48,0,0,1-2.68-.94c-.48-.24-1-.5-1.58-.85s-1.18-.75-1.87-1.2h0l-.1-.07h0a5.32,5.32,0,0,0-.66-.37,5,5,0,0,0-.71-.3,4.88,4.88,0,0,0-1.5-.26h-.12c-.86,0-1.6-.08-2.27-.14s-1.28-.14-1.83-.22a11.63,11.63,0,0,1-2.76-.87h0c-.2-.1-.4-.19-.59-.3l-.58-.37c-.38-.27-.77-.57-1.19-.92a31.44,31.44,0,0,1-2.83-2.84h0l-.08-.09h0a5.87,5.87,0,0,0-1.15-1,5,5,0,0,0-1.4-.61h0l-.12,0h0c-.81-.24-1.51-.49-2.16-.71a18.2,18.2,0,0,1-1.7-.68,11.18,11.18,0,0,1-2.47-1.51l-2.69,3.24,2.68-3.24a12.53,12.53,0,0,1-1.89-2.12c-.32-.43-.61-1-.95-1.53-.17-.28-.34-.59-.53-.91s-.38-.65-.55-1h0l-.06-.11h0a5.16,5.16,0,0,0-.87-1.26,6,6,0,0,0-1.21-.95h0l-.1-.06h0a32,32,0,0,1-3.4-2.31,9.6,9.6,0,0,1-2-2.08l-.95.7.95-.69a11.71,11.71,0,0,1-.7-1.15,9.71,9.71,0,0,1-.61-1.37c-.18-.52-.37-1.08-.56-1.72-.09-.31-.18-.65-.29-1l-.26-1.15h0l0-.12h0a5,5,0,0,0-.55-1.42,6.25,6.25,0,0,0-.91-1.22h0l-.09-.08h0c-.58-.61-1.12-1.15-1.57-1.65s-.82-1-1.15-1.42a11,11,0,0,1-.86-1.27,8.75,8.75,0,0,1-.57-1.25L11,103.9l3.9-1.55a9.74,9.74,0,0,1-.64-2.76c-.05-.54-.09-1.13-.12-1.79,0-.17,0-.34,0-.51s0-.36,0-.54c0-.37,0-.76,0-1.18h0v-.12h0A4.88,4.88,0,0,0,14,93.94a5.35,5.35,0,0,0-.57-1.42h0l-.06-.1h0a27.79,27.79,0,0,1-1.87-3.66A9.35,9.35,0,0,1,10.69,86l-4.17.52L10.69,86a9.84,9.84,0,0,1-.08-1.34,12.08,12.08,0,0,1,.15-1.5c.08-.54.19-1.12.33-1.77.06-.32.15-.66.25-1l.31-1.13h0l0-.12h0a5.12,5.12,0,0,0,.2-1.52,5.05,5.05,0,0,0-.2-1.51h0l0-.12h0c-.22-.82-.45-1.55-.58-2.21s-.25-1.25-.33-1.8A8.48,8.48,0,0,1,10.69,69h0a9.49,9.49,0,0,1,.77-2.74,28.46,28.46,0,0,1,1.83-3.57h0l.06-.11h0a4.9,4.9,0,0,0,.56-1.42,5.2,5.2,0,0,0,.18-1.51h0v-.12h0c0-.43,0-.83,0-1.2s0-.75,0-1.08c0-.67.07-1.27.13-1.82a8.91,8.91,0,0,1,.68-2.82l-7.83-3.1a21.38,21.38,0,0,1-1.45,2.93c-.31.54-.67,1.12-1.09,1.77-.22.33-.42.68-.64,1s-.46.77-.7,1.19h0l-.07.13h0a6.43,6.43,0,0,0-.71,1.65,6.84,6.84,0,0,0-.17,1.79h0v.14h0c0,1.9.19,3.37.21,4.59A23.24,23.24,0,0,1,2.35,68l4.17.53L2.34,68a10.46,10.46,0,0,1-.27,1.53c-.12.52-.23,1.07-.41,1.67s-.37,1.25-.61,2-.46,1.56-.74,2.5h0l0,.13h0A6.9,6.9,0,0,0,0,77.59a6.48,6.48,0,0,0,.28,1.77h0l0,.13h0c.14.46.26.89.38,1.3s.23.78.35,1.14c.24.73.44,1.37.61,1.95s.29,1.13.41,1.64A14,14,0,0,1,2.35,87h0a22.42,22.42,0,0,1,.13,3.27c0,1.24-.17,2.73-.2,4.69h0v.14h0a6.92,6.92,0,0,0,.17,1.79,7.15,7.15,0,0,0,.71,1.65h0l.07.12h0l.69,1.16.31.53c.11.17.21.34.32.5.41.64.76,1.21,1.07,1.74a22.78,22.78,0,0,1,1.46,2.85h0a11,11,0,0,1,.5,1.47c.15.51.31,1,.45,1.66s.27,1.28.41,2,.35,1.6.56,2.55H9l0,.14H9A5.6,5.6,0,0,0,9.64,115a7.1,7.1,0,0,0,1.09,1.43h0l.1.1h0l.95,1,.88.82c.55.52,1,1,1.46,1.42s.82.83,1.17,1.23a12.49,12.49,0,0,1,.95,1.17h0a19.21,19.21,0,0,1,1.69,2.79c.56,1.12,1.22,2.46,2.08,4.21h0l.06.12h0a5.65,5.65,0,0,0,1,1.46,6.64,6.64,0,0,0,1.39,1.12h0l.12.07h0c.4.25.8.46,1.17.67l1.05.59c.66.37,1.23.72,1.76,1A16.07,16.07,0,0,1,29.26,136h0a16.08,16.08,0,0,1,2.33,2.29c.4.48.87,1,1.36,1.56s1,1.26,1.7,2h0l.1.1h0a6.69,6.69,0,0,0,1.37,1.15,5.93,5.93,0,0,0,1.62.75h0l.14,0h0c1.86.5,3.24.91,4.43,1.22.59.16,1.12.33,1.61.51l.72.29.69.29,1.79-3.8-1.8,3.81a16,16,0,0,1,2.83,1.64c.52.34,1.08.73,1.71,1.17s1.33,1,2.15,1.5h0l.11.08h0a6.89,6.89,0,0,0,1.61.79,5.43,5.43,0,0,0,.88.23,6.52,6.52,0,0,0,.88.07h.15l2.55.06c.75,0,1.43,0,2,0a22.26,22.26,0,0,1,3.19.31l.79-4.13-.79,4.13a11.76,11.76,0,0,1,1.51.35c.52.14,1,.35,1.64.53s1.23.44,2,.72l1.15.45,1.3.46h0l.13,0h0a7.15,7.15,0,0,0,1.76.37,5.53,5.53,0,0,0,.91,0,6.08,6.08,0,0,0,.87-.15h0l.14,0h0l2.48-.58c.74-.16,1.39-.36,2-.49s1.15-.24,1.66-.31l.77-.1.74-.08h0a15.8,15.8,0,0,1,3.26.08c.62.05,1.3.12,2.07.21s1.63.22,2.6.28h.14a6.78,6.78,0,0,0,1.79-.08,6,6,0,0,0,.88-.23,5.46,5.46,0,0,0,.82-.35h0l.13-.07h0l2.26-1.18c.34-.16.65-.34.95-.5s.58-.32.85-.46a22.59,22.59,0,0,1,3-1.27h0a13.57,13.57,0,0,1,1.49-.43l.81-.16.43-.07.45-.08c.61-.11,1.29-.21,2.06-.31l1.22-.16,1.36-.22h0l.14,0h0a7.23,7.23,0,0,0,1.72-.52,5.72,5.72,0,0,0,1.49-1h0l.11-.1h0l1.9-1.7c.55-.52,1-1,1.5-1.39s.89-.75,1.31-1.07a12.18,12.18,0,0,1,1.22-.89l-4.51-7.1A10.24,10.24,0,0,1,112.64,135.15ZM5.72,54.14A3.29,3.29,0,0,1,6.16,54a3.62,3.62,0,0,1,.58-.18,5.75,5.75,0,0,1,1.5-.16,5.9,5.9,0,0,1,3.2,1.11,6.47,6.47,0,0,1,1.11,1l.37.46c.1.14.18.27.25.38s.19.33.19.33h0l-.22-.27A6.22,6.22,0,0,0,9.89,54a5.58,5.58,0,0,0-4.18.19l-.35.12,0,0Zm-.81,4.77a3.52,3.52,0,0,1,1.61-2.13,3.22,3.22,0,0,1,2.55-.28,3.47,3.47,0,0,1,2,1.61,3.23,3.23,0,0,1,.33,2.46,3.19,3.19,0,0,1-1.47,2A3.57,3.57,0,0,1,7.4,63a3.18,3.18,0,0,1-2.09-1.47A3.51,3.51,0,0,1,4.91,58.91Zm.3,6.36a5.39,5.39,0,0,1-1.23-1,4.06,4.06,0,0,1-.4-.48,4.72,4.72,0,0,1-.27-.4c-.07-.11-.11-.21-.15-.28l-.05-.1h0s.08.12.24.33.18.23.3.37.26.28.42.43A5.88,5.88,0,0,0,5.33,65,6.15,6.15,0,0,0,7,65.54a6.5,6.5,0,0,0,1.7,0,6.66,6.66,0,0,0,1.44-.33,5.84,5.84,0,0,0,.54-.23,3.69,3.69,0,0,0,.4-.2l.34-.2v0l-.07.06-.23.18-.39.25a3.73,3.73,0,0,1-.53.27,6,6,0,0,1-1.48.43,6.25,6.25,0,0,1-1.78,0A5.43,5.43,0,0,1,6,65.61,6.56,6.56,0,0,1,5.21,65.27Zm-3,7.49.38-.28.52-.32a6.28,6.28,0,0,1,1.41-.52,6.1,6.1,0,0,1,1.72-.12,6.08,6.08,0,0,1,1.67.39,6,6,0,0,1,1.32.69c.18.12.33.24.47.35l.33.3a3.37,3.37,0,0,1,.27.28l0,0L10,73.33a6.27,6.27,0,0,0-3.78-1.7,5.61,5.61,0,0,0-4,1.23l-.3.2,0,0S2,72.93,2.18,72.76Zm7.11,4.82a3.15,3.15,0,0,1-.92,2.3A3.48,3.48,0,0,1,6,80.94,3.14,3.14,0,0,1,3.63,80a3.59,3.59,0,0,1-1-2.46,3.52,3.52,0,0,1,1-2.45A3.18,3.18,0,0,1,6,74.21a3.56,3.56,0,0,1,2.35,1.07A3.16,3.16,0,0,1,9.29,77.58ZM2,82.13l-.08-.08,0,0a3.46,3.46,0,0,0,.32.27,3.42,3.42,0,0,0,.38.28,4.76,4.76,0,0,0,.52.31,5.23,5.23,0,0,0,1.4.51,5.63,5.63,0,0,0,1.7.11,6.24,6.24,0,0,0,3-1c.18-.12.33-.24.47-.35l.33-.29c.18-.17.28-.28.28-.28l0,0-.06.08a1.34,1.34,0,0,1-.18.23,4.18,4.18,0,0,1-.31.34,3.71,3.71,0,0,1-.45.39A5.48,5.48,0,0,1,8,83.37a6.46,6.46,0,0,1-1.73.44c-.3,0-.61,0-.91,0a5.72,5.72,0,0,1-.86-.14A5.09,5.09,0,0,1,3,83.05a3,3,0,0,1-.51-.36,4.15,4.15,0,0,1-.36-.33A1.32,1.32,0,0,1,2,82.13ZM3.4,91.77,3.15,92l0,0s.08-.13.24-.34a3.51,3.51,0,0,1,.29-.37,4.38,4.38,0,0,1,.43-.44A5.19,5.19,0,0,1,5.33,90,5.72,5.72,0,0,1,7,89.48a6.64,6.64,0,0,1,1.72,0,6.73,6.73,0,0,1,1.45.34l.54.23.4.21.34.2,0,0-.32-.14A6.31,6.31,0,0,0,7,89.59,5.57,5.57,0,0,0,3.4,91.77Zm1.94,1.84a3.2,3.2,0,0,1,2.1-1.47,3.49,3.49,0,0,1,2.53.44A3.33,3.33,0,0,1,11.12,97a3.52,3.52,0,0,1-2,1.62,3.16,3.16,0,0,1-2.54-.29,3.41,3.41,0,0,1-1.23-4.76Zm.81,7.61c-.17-.08-.31-.16-.43-.23a3,3,0,0,1-.26-.17l-.09-.06v0l.37.18a4,4,0,0,0,.44.18,5.83,5.83,0,0,0,.58.17,5.32,5.32,0,0,0,1.49.14,5.42,5.42,0,0,0,1.66-.32,6.38,6.38,0,0,0,1.52-.77,6,6,0,0,0,1.1-1,4.39,4.39,0,0,0,.37-.46,4,4,0,0,0,.25-.37l.2-.33h0l0,.1c0,.06-.06.15-.12.26a4,4,0,0,1-.21.4,3.41,3.41,0,0,1-.34.5,5.87,5.87,0,0,1-1.09,1.08,6.78,6.78,0,0,1-1.57.86,6.29,6.29,0,0,1-.88.22,6.54,6.54,0,0,1-.87.08,5.35,5.35,0,0,1-1.53-.23A4.86,4.86,0,0,1,6.15,101.22Zm3.12,8.57-.17.33h0s0-.15.15-.39.11-.27.19-.44.19-.34.31-.53a5.54,5.54,0,0,1,1-1.13,5.71,5.71,0,0,1,1.45-.93,6.23,6.23,0,0,1,3.13-.5l.59.08a4.38,4.38,0,0,1,.43.11l.38.11v0l-.35-.05a6.25,6.25,0,0,0-4.13.33A5.63,5.63,0,0,0,9.27,109.79Zm2.63,3.95a3.12,3.12,0,0,1-.41-1.33,3.44,3.44,0,0,1,.13-1.32,3.16,3.16,0,0,1,1.67-2,3.47,3.47,0,0,1,2.56-.2,3.37,3.37,0,0,1,1.11.58,3.75,3.75,0,0,1,.82,1,3.24,3.24,0,0,1,.29,2.47A3.56,3.56,0,0,1,16.54,115a3.21,3.21,0,0,1-2.55.37A3.53,3.53,0,0,1,11.9,113.74Zm3,4.59a3.6,3.6,0,0,1-.62-.08l-.47-.11c-.13,0-.23-.08-.3-.1l-.1,0v0a3.62,3.62,0,0,0,.4.08,4.12,4.12,0,0,0,.46.07l.61,0a5.51,5.51,0,0,0,3-1,6.25,6.25,0,0,0,1.27-1.12,6.65,6.65,0,0,0,.83-1.23c.1-.2.18-.38.25-.54l.15-.42c.08-.24.11-.38.11-.38h0l0,.1a2.4,2.4,0,0,1,0,.29c0,.12-.07.27-.11.44a4.52,4.52,0,0,1-.21.57,5.54,5.54,0,0,1-.79,1.32,6.57,6.57,0,0,1-1.3,1.22,7,7,0,0,1-.8.44,5.47,5.47,0,0,1-.83.29A5,5,0,0,1,14.93,118.33Zm4.53,7.45-.08.35h0a4,4,0,0,1,0-.41c0-.13,0-.28.08-.47s.1-.37.17-.59a5.7,5.7,0,0,1,.68-1.35,6,6,0,0,1,1.16-1.26,6.61,6.61,0,0,1,1.49-.86,5.86,5.86,0,0,1,1.42-.39,4.54,4.54,0,0,1,.59-.06l.45,0h.39v0l-.35,0a6.27,6.27,0,0,0-3.92,1.34A5.6,5.6,0,0,0,19.46,125.78ZM23,128.94a3.43,3.43,0,0,1-.75-1.17,3.53,3.53,0,0,1-.19-1.32,3.21,3.21,0,0,1,1.13-2.31,3.47,3.47,0,0,1,2.43-.83,3.37,3.37,0,0,1,1.21.3,3.16,3.16,0,0,1,1.05.73,3.26,3.26,0,0,1,.88,2.33,3.39,3.39,0,0,1-1,2.37,3.3,3.3,0,0,1-2.38,1A3.43,3.43,0,0,1,23,128.94Zm5.5,3.17a4.47,4.47,0,0,1-2.07.61H26a2,2,0,0,1-.31,0h-.11v0l.41,0,.46,0a5.32,5.32,0,0,0,.59-.13,5.05,5.05,0,0,0,1.37-.58,5.85,5.85,0,0,0,1.31-1.09,6.07,6.07,0,0,0,.95-1.4,6.8,6.8,0,0,0,.5-1.4,5.06,5.06,0,0,0,.1-.58c0-.17,0-.33.05-.45s0-.39,0-.39h0v.1c0,.07,0,.16,0,.29s0,.28,0,.46a4.68,4.68,0,0,1-.06.6,5.79,5.79,0,0,1-.43,1.48,6.51,6.51,0,0,1-1,1.49,4.92,4.92,0,0,1-.67.62A5,5,0,0,1,28.5,132.11Zm5.9,2.59a5.77,5.77,0,0,0-1,1.94,5.21,5.21,0,0,0-.14,2.08v.37h0s0-.14-.06-.4,0-.29,0-.47a4.09,4.09,0,0,1,0-.6,5.38,5.38,0,0,1,.31-1.47,5.9,5.9,0,0,1,.82-1.52,6.28,6.28,0,0,1,1.23-1.19,6.21,6.21,0,0,1,1.29-.75l.55-.21.44-.13.38-.09v0l-.33.13a6.54,6.54,0,0,0-1.9.83A6,6,0,0,0,34.4,134.7Zm4.39,6.74a3.65,3.65,0,0,1-1.29-.52A3.37,3.37,0,0,1,36,138.75a3.25,3.25,0,0,1,.53-2.53,3.41,3.41,0,0,1,2.14-1.39,3.31,3.31,0,0,1,2.46.43,3,3,0,0,1,.91.9,3.33,3.33,0,0,1,.52,1.13,3.44,3.44,0,0,1-.35,2.53,3.23,3.23,0,0,1-2.06,1.56A3.48,3.48,0,0,1,38.79,141.44Zm6.47-1.93a6.57,6.57,0,0,1-.56,1.69,7,7,0,0,1-.49.76,6.22,6.22,0,0,1-.58.66,5.25,5.25,0,0,1-1.29.89,3.41,3.41,0,0,1-.58.24l-.46.12-.31,0h-.11v0a3.61,3.61,0,0,0,.39-.11l.44-.16a5.67,5.67,0,0,0,.54-.28,5.31,5.31,0,0,0,1.19-.92,5.88,5.88,0,0,0,1-1.38,6.07,6.07,0,0,0,.57-1.59,6.52,6.52,0,0,0,.13-1.46c0-.22,0-.41-.05-.59s0-.32-.06-.45l-.08-.38h0l0,.1a2.35,2.35,0,0,1,.1.27l.11.45a4.24,4.24,0,0,1,.1.59A6.2,6.2,0,0,1,45.26,139.51ZM50,143.68a5.5,5.5,0,0,0-.07,4.16l.1.35,0,0s-.07-.14-.16-.38-.1-.28-.16-.45a5.75,5.75,0,0,1-.14-.59,5.58,5.58,0,0,1,.36-3.15,6.23,6.23,0,0,1,.88-1.48,6.45,6.45,0,0,1,1.07-1c.17-.14.34-.25.48-.35l.39-.23a3.28,3.28,0,0,1,.35-.17v0l-.28.2A6.32,6.32,0,0,0,50,143.68Zm7.21,5a3.35,3.35,0,0,1-2.66.22,3.53,3.53,0,0,1-2-1.72,3.21,3.21,0,0,1-.11-2.58,3.49,3.49,0,0,1,1.73-1.89,3.19,3.19,0,0,1,2.48-.19,3.39,3.39,0,0,1,1.9,1.6,3.53,3.53,0,0,1,.29,2.55A3.22,3.22,0,0,1,57.19,148.71Zm4.38-1.32a6.64,6.64,0,0,1-.28.86,5.7,5.7,0,0,1-.4.78,4.83,4.83,0,0,1-1,1.18,3.68,3.68,0,0,1-.5.38,4,4,0,0,1-.43.24,2.38,2.38,0,0,1-.28.14l-.1,0,0,0,.35-.21.39-.28c.14-.12.3-.25.45-.4a5.5,5.5,0,0,0,.92-1.19,5.6,5.6,0,0,0,.62-1.58,5.8,5.8,0,0,0,.16-1.69,6,6,0,0,0-.24-1.45c-.06-.21-.13-.39-.19-.55s-.12-.3-.18-.41l-.17-.35,0,0,.06.09a2.46,2.46,0,0,1,.16.24c.07.1.14.24.23.39a6,6,0,0,1,.24.55,5.87,5.87,0,0,1,.33,1.49A6.36,6.36,0,0,1,61.57,147.39Zm7.67-2.61a6.41,6.41,0,0,0-1.94,3.69,5.54,5.54,0,0,0,1,4.05l.19.32,0,0s-.1-.12-.25-.33a4,4,0,0,1-.26-.4,5.06,5.06,0,0,1-.29-.53,5.43,5.43,0,0,1-.43-1.44,5.76,5.76,0,0,1,0-1.71,5.89,5.89,0,0,1,.49-1.64,6,6,0,0,1,.77-1.29c.13-.17.26-.32.38-.45l.32-.32a3.33,3.33,0,0,1,.29-.25l0,0Zm6.3,6.76a3.38,3.38,0,0,1-1.14.69,3.57,3.57,0,0,1-.66.18,4.31,4.31,0,0,1-.72,0,3.47,3.47,0,0,1-2.39-1.17,3.19,3.19,0,0,1-.76-2.46,3.54,3.54,0,0,1,1.21-2.26,3.18,3.18,0,0,1,2.35-.81,3.29,3.29,0,0,1,.64.12,3.86,3.86,0,0,1,.6.21,3.21,3.21,0,0,1,1,.75,3.49,3.49,0,0,1,.92,2.39A3.19,3.19,0,0,1,75.54,151.54Zm3.86-1.46a7.23,7.23,0,0,1-.19.86,5.54,5.54,0,0,1-.7,1.4,4.22,4.22,0,0,1-.4.49c-.13.13-.24.25-.34.34a2.06,2.06,0,0,1-.25.19l-.08.07,0,0a3,3,0,0,0,.29-.29,4.37,4.37,0,0,0,.3-.36c.11-.15.23-.31.35-.5a5.67,5.67,0,0,0,.59-1.38,5.89,5.89,0,0,0,.21-1.69,6.08,6.08,0,0,0-.27-1.67,5.83,5.83,0,0,0-.59-1.35c-.11-.18-.22-.35-.32-.49l-.27-.35c-.16-.19-.26-.29-.26-.29l0,0,.08.06c0,.05.13.11.21.2a3.2,3.2,0,0,1,.32.32,3.85,3.85,0,0,1,.37.47,5.57,5.57,0,0,1,.69,1.36,6.31,6.31,0,0,1,.33,1.76A6.8,6.8,0,0,1,79.4,150.08Zm8.06,2.7-.32-.25a4.66,4.66,0,0,1-.35-.32c-.13-.13-.27-.28-.41-.45a5.37,5.37,0,0,1-.78-1.28,5.89,5.89,0,0,1-.43-1.65,6.13,6.13,0,0,1,.07-1.72,6.36,6.36,0,0,1,.43-1.43c.09-.21.18-.38.26-.54l.23-.39.22-.32,0,0-.16.31a6.29,6.29,0,0,0-1,4.05,5.5,5.5,0,0,0,2,3.69l.25.26Zm6.56-3a3.33,3.33,0,0,1-2.22,1.47,3.53,3.53,0,0,1-2.61-.54,3.23,3.23,0,0,1-1.34-2.2,3.42,3.42,0,0,1,.61-2.48,3.18,3.18,0,0,1,2.08-1.37,3.45,3.45,0,0,1,2.44.49,3.5,3.5,0,0,1,1.48,2.09A3.22,3.22,0,0,1,94,149.76Zm3.41-1.49a5.5,5.5,0,0,1-.33,1.52,5.24,5.24,0,0,1-.26.57c-.1.17-.18.31-.26.42s-.14.19-.18.25l-.07.08,0,0,.21-.34c.06-.12.13-.26.2-.43s.14-.36.21-.57a6,6,0,0,0,.23-1.49,5.78,5.78,0,0,0-.21-1.68,6.46,6.46,0,0,0-.68-1.56,6.69,6.69,0,0,0-.91-1.16c-.15-.15-.3-.28-.43-.39l-.35-.27-.32-.23v0l.09,0c.06,0,.15.07.26.14l.39.24a4.23,4.23,0,0,1,.47.36,5.53,5.53,0,0,1,1,1.15,6.43,6.43,0,0,1,.75,1.61,6.8,6.8,0,0,1,.17.9A6.53,6.53,0,0,1,97.43,148.27Zm8.45-.28-.38-.17a3.41,3.41,0,0,1-.41-.22,5.41,5.41,0,0,1-.51-.33,5.28,5.28,0,0,1-1.07-1.05,5.86,5.86,0,0,1-.84-1.49,6.32,6.32,0,0,1-.36-1.68,7.17,7.17,0,0,1,.06-1.5c0-.21.08-.41.12-.58s.09-.31.13-.43.13-.37.13-.37h0l-.08.34a6.36,6.36,0,0,0,.08,4.17,5.52,5.52,0,0,0,2.8,3.08l.32.19Zm5.6-4.57a3.72,3.72,0,0,1-.67,1.15,3.18,3.18,0,0,1-1.11.83,3.55,3.55,0,0,1-2.67.13,3.18,3.18,0,0,1-1.84-1.79,3.51,3.51,0,0,1,0-2.57,3.18,3.18,0,0,1,1.68-1.83,3.73,3.73,0,0,1,1.24-.32,3.31,3.31,0,0,1,1.24.18,3.49,3.49,0,0,1,2,1.66A3.24,3.24,0,0,1,111.48,143.42Zm2.92-2.3a5.22,5.22,0,0,1,.06,1.56,3.5,3.5,0,0,1-.11.61c0,.18-.1.34-.14.47a2.35,2.35,0,0,1-.12.29l0,.1h0l.11-.4c0-.12.06-.28.09-.46s0-.38,0-.6a5.28,5.28,0,0,0-.14-1.49,5.62,5.62,0,0,0-.63-1.58,6.24,6.24,0,0,0-2.21-2.24,5.27,5.27,0,0,0-.52-.27l-.41-.18-.36-.13v0l.1,0,.28.06.43.14a4.06,4.06,0,0,1,.55.23,6,6,0,0,1,1.27.87,6.35,6.35,0,0,1,1.13,1.37,6.22,6.22,0,0,1,.38.83A5.35,5.35,0,0,1,114.4,141.12Z"/><path class="cls-1" d="M109,140.08a2.4,2.4,0,0,0-1.8.1,2.43,2.43,0,0,0-1.18,3.19,2.4,2.4,0,0,0,3.25,1.19,2.34,2.34,0,0,0,1.27-1.42,2.37,2.37,0,0,0-.13-1.86A2.47,2.47,0,0,0,109,140.08Zm1,2.91a1.8,1.8,0,0,1-1,1.09,1.88,1.88,0,1,1-1.61-3.4,2,2,0,0,1,1.42-.07,1.94,1.94,0,0,1,1.08.94A1.9,1.9,0,0,1,110,143Z"/><path class="cls-1" d="M92.49,145.92a2.13,2.13,0,0,0-.84-.34,2.28,2.28,0,0,0-.94,0,2.48,2.48,0,0,0-1.94,2.81,2.4,2.4,0,0,0,2.85,1.95,2.44,2.44,0,0,0,.93-.36,2.55,2.55,0,0,0,.67-.68,2.41,2.41,0,0,0,.33-1.84A2.46,2.46,0,0,0,92.49,145.92Zm-1,3.87a1.88,1.88,0,0,1-2.21-1.52,1.89,1.89,0,0,1,3.71-.71A1.86,1.86,0,0,1,91.48,149.79Z"/><path class="cls-1" d="M73.38,146.65a2.47,2.47,0,0,0-2.58,2.24,2.41,2.41,0,0,0,2.28,2.6,2.34,2.34,0,0,0,1.8-.62,2.39,2.39,0,0,0,.78-1.7,2.46,2.46,0,0,0-.65-1.73A2.51,2.51,0,0,0,73.38,146.65Zm1.08,3.82a1.83,1.83,0,0,1-.63.38,1.89,1.89,0,1,1-.52-3.66,1.83,1.83,0,0,1,.7.2,2,2,0,0,1,.57.42,1.89,1.89,0,0,1,.49,1.35A1.81,1.81,0,0,1,74.46,150.47Z"/><path class="cls-1" d="M57.12,143.9a2.5,2.5,0,0,0-.81-.47A2.46,2.46,0,0,0,53.26,145a2.4,2.4,0,0,0,1.56,3.09,2.57,2.57,0,0,0,1,.12,2.6,2.6,0,0,0,.92-.28,2.37,2.37,0,0,0,1.17-1.45,2.48,2.48,0,0,0-.19-1.84A2.31,2.31,0,0,0,57.12,143.9Zm.21,2.38a1.84,1.84,0,0,1-.92,1.12,1.76,1.76,0,0,1-1.46.11,1.87,1.87,0,0,1-1.21-2.39,1.89,1.89,0,0,1,2.37-1.18,1.92,1.92,0,0,1,1.07.92A1.83,1.83,0,0,1,57.33,146.28Z"/><path class="cls-1" d="M41.64,137.53a2.48,2.48,0,0,0-1-1.49,2.34,2.34,0,0,0-1.8-.3,2.47,2.47,0,0,0-1.54,1,2.32,2.32,0,0,0-.36,1.83,2.49,2.49,0,0,0,1.1,1.55,2.38,2.38,0,0,0,3.37-.78A2.48,2.48,0,0,0,41.64,137.53Zm-.77,1.54a1.88,1.88,0,0,1-1.17.85,1.91,1.91,0,0,1-1.44-.26,1.85,1.85,0,0,1-.58-2.61,1.91,1.91,0,0,1,2.59-.57,1.82,1.82,0,0,1,.81,1.17A1.93,1.93,0,0,1,40.87,139.07Z"/><path class="cls-1" d="M27.21,125a2.49,2.49,0,0,0-3.41-.14,2.43,2.43,0,1,0,3.33,3.55A2.48,2.48,0,0,0,27.21,125Zm-.49,3A1.87,1.87,0,0,1,24,127.9a1.91,1.91,0,0,1-.53-1.36,1.91,1.91,0,0,1,3.27-1.22A1.92,1.92,0,0,1,26.72,128Z"/><path class="cls-1" d="M16.05,114.23A2.43,2.43,0,0,0,17,111a2.14,2.14,0,0,0-.28-.39,1.62,1.62,0,0,0-.32-.32,2.3,2.3,0,0,0-.8-.43,2.45,2.45,0,0,0-1.85.16,2.32,2.32,0,0,0-1.19,1.42,2.36,2.36,0,0,0-.1,1,2,2,0,0,0,.09.49,2.11,2.11,0,0,0,.21.46A2.41,2.41,0,0,0,16.05,114.23ZM13.18,113a1.79,1.79,0,0,1-.16-1.46,1.84,1.84,0,0,1,.92-1.11,1.89,1.89,0,0,1,1.43-.13,1.93,1.93,0,0,1,1.1.89A1.88,1.88,0,1,1,13.18,113Z"/><path class="cls-1" d="M8.86,97.76a2.43,2.43,0,1,0-3-1.74A2.44,2.44,0,0,0,8.86,97.76Zm-1.1-4.22a1.89,1.89,0,1,1-1.4,2.31A1.91,1.91,0,0,1,7.76,93.54Z"/><path class="cls-1" d="M3.51,77.58A2.44,2.44,0,0,0,6,80a2.43,2.43,0,0,0,0-4.86A2.44,2.44,0,0,0,3.51,77.58Zm4.31,0A1.88,1.88,0,0,1,6,79.43a1.89,1.89,0,1,1,0-3.78A1.88,1.88,0,0,1,7.82,77.54Z"/><path class="cls-1" d="M7.61,62.11a2.43,2.43,0,1,0-1.8-3A2.44,2.44,0,0,0,7.61,62.11ZM6.35,59.23a1.88,1.88,0,1,1,1.39,2.31A1.9,1.9,0,0,1,6.35,59.23Z"/><path class="cls-1" d="M15.46,51.44a12,12,0,0,1,.85-1.24c.33-.43.71-.89,1.14-1.39s1-1,1.53-1.62h0l.09-.08h0A6.22,6.22,0,0,0,20,45.88a5.1,5.1,0,0,0,.55-1.43h0l0-.12h0c.1-.42.19-.81.27-1.18s.2-.71.29-1c.2-.65.38-1.22.57-1.74A9.49,9.49,0,0,1,22.31,39,12.22,12.22,0,0,1,23,37.83l-5.9-4.3,5.9,4.3a9.76,9.76,0,0,1,2-2l.67-.52.37-.28.41-.26c.56-.37,1.18-.76,1.88-1.19h0l.1-.07h0a6.35,6.35,0,0,0,1.2-1,4.89,4.89,0,0,0,.87-1.26h0l.06-.12h0c.18-.38.38-.73.57-1.06l.53-.93c.35-.58.65-1.11,1-1.55a11.79,11.79,0,0,1,2-2.15l-2.69-3.24,2.68,3.24A12.69,12.69,0,0,1,37.06,24a17.91,17.91,0,0,1,1.68-.66c.63-.21,1.32-.45,2.1-.7h0l.12,0h0A5.06,5.06,0,0,0,43.51,21h0l.09-.09h0c2.27-2.5,3.67-3.74,5.31-4.5l-1.79-3.8,1.79,3.8a11.8,11.8,0,0,1,2.72-.82c.54-.08,1.13-.15,1.79-.21s1.38-.14,2.21-.15h.13a5.27,5.27,0,0,0,1.5-.27,4.45,4.45,0,0,0,.71-.3,7,7,0,0,0,.66-.37h0l.1-.07h0c.71-.46,1.34-.87,1.92-1.22a17.74,17.74,0,0,1,1.61-.87A9.4,9.4,0,0,1,65,11.19l-.78-4.13L65,11.19a11.23,11.23,0,0,1,1.34-.14,8.51,8.51,0,0,1,1.5,0c.54.05,1.13.13,1.78.24l1,.16c.36.06.74.16,1.15.25h0l.12,0h0a4.82,4.82,0,0,0,1.52.12,4.94,4.94,0,0,0,.77-.12,6,6,0,0,0,.73-.19h0l.11,0h0l2.17-.71c.33-.11.64-.18.93-.25l.85-.19c.54-.1,1-.18,1.51-.23.24,0,.47,0,.7,0l.68,0h0a12,12,0,0,1,2.78.58c.51.19,1.06.42,1.67.68s1.28.54,2,.93h0l.11.06h0a5.07,5.07,0,0,0,1.45.49,6.06,6.06,0,0,0,1.53.06h.12c.84-.06,1.59-.12,2.27-.15l.5,0h.46l.87,0a9.74,9.74,0,0,1,2.85.49h0a10.94,10.94,0,0,1,2.54,1.27c.45.31.93.66,1.45,1.06l.83.65c.28.22.57.5.88.77h0l.1.08h0a5,5,0,0,0,1.28.83,6.48,6.48,0,0,0,1.46.45h0l.12,0h0l2.25.41c.65.16,1.23.32,1.76.48s1,.34,1.44.52a10.68,10.68,0,0,1,1.2.68h0A9.47,9.47,0,0,1,116,22.37a29.26,29.26,0,0,1,2.45,3.19h0l.07.1h0a5,5,0,0,0,1,1.11,4.74,4.74,0,0,0,1.29.81h0l.11.05h0a28.7,28.7,0,0,1,3.67,1.85c.24.14.46.28.67.42s.4.3.58.45a10.11,10.11,0,0,1,1,.94L133,25.54a11.47,11.47,0,0,1-1-1.17c-.17-.21-.33-.44-.49-.67L131,23c-.72-1-1.47-2.31-2.59-3.91h0l-.08-.12h0a6.59,6.59,0,0,0-1.2-1.34,6.41,6.41,0,0,0-1.54-.92h0l-.13-.05h0c-1.73-.78-3.12-1.27-4.23-1.77a23.64,23.64,0,0,1-2.86-1.46h0a12.74,12.74,0,0,1-1.26-.9c-.43-.32-.87-.67-1.33-1.08s-1-.88-1.54-1.41-1.22-1.09-2-1.74h0l-.1-.09h0a5.75,5.75,0,0,0-1.5-1,6.8,6.8,0,0,0-1.72-.52h0l-.14,0h0c-.47-.07-.9-.16-1.33-.21l-1.19-.15c-.76-.1-1.42-.2-2-.3a18.22,18.22,0,0,1-3.13-.7l-1.3,4,1.3-4A20.17,20.17,0,0,1,98.1,4l-.87-.46-.47-.26-.5-.26L94,1.85h0l-.12-.07h0a5.68,5.68,0,0,0-1.7-.57,6.78,6.78,0,0,0-1.79-.08h-.14c-1,.06-1.79.2-2.54.28s-1.42.16-2,.21a16.91,16.91,0,0,1-3.2.11l-.31,5.05.31-5c-.26,0-.51,0-.76-.07l-.78-.09c-.53-.07-1.08-.17-1.69-.31l-1-.23C77.9,1,77.54.86,77.17.78L74.63.19h0l-.14,0h0A6.47,6.47,0,0,0,73.61,0a6.93,6.93,0,0,0-.91,0A6.73,6.73,0,0,0,71,.39h0l-.14,0h0c-.44.16-.87.29-1.26.45l-1.13.45c-.7.27-1.33.5-1.91.7s-1.1.4-1.6.54a12.23,12.23,0,0,1-1.48.36h0a22.88,22.88,0,0,1-3.25.34c-.62,0-1.31,0-2.08,0l-2.61.06h-.14a5.26,5.26,0,0,0-.89.08,5.71,5.71,0,0,0-.88.23A7.09,7.09,0,0,0,52,4.46h0l-.12.08h0c-.8.51-1.47,1-2.09,1.47s-1.17.82-1.68,1.15A15.88,15.88,0,0,1,45.33,8.8h0l-.7.31-.72.3c-.5.19-1,.36-1.64.53l-.95.26-1.05.3-2.52.7h0l-.14,0h0A6.24,6.24,0,0,0,36,12a6.73,6.73,0,0,0-1.37,1.16h0l-.1.11h0L32.86,15.2c-.49.58-.94,1.07-1.33,1.55A17.22,17.22,0,0,1,29.26,19h0a15.32,15.32,0,0,1-2.68,1.87c-.54.31-1.12.67-1.79,1.05l-1.08.6c-.38.21-.78.44-1.19.69h0l-.12.07h0A6.74,6.74,0,0,0,21,24.42a5.45,5.45,0,0,0-1,1.46h0L19.9,26h0l-1.13,2.29c-.08.17-.17.33-.25.49l-.22.48q-.21.45-.42.87a22.44,22.44,0,0,1-1.64,2.75h0c-1.17,1.67-2.71,3-5.49,5.75h0l-.1.1h0a7.1,7.1,0,0,0-1.09,1.43,5.88,5.88,0,0,0-.62,1.68h0l0,.14h0c-.2.94-.4,1.75-.54,2.49s-.27,1.41-.41,2-.28,1.13-.42,1.63a14.29,14.29,0,0,1-.47,1.44l7.81,3.1A12.16,12.16,0,0,1,15.46,51.44ZM127.73,26.19a5.52,5.52,0,0,0,1.6-3.86l0-.37h0a2.76,2.76,0,0,1,0,.42,4.11,4.11,0,0,1,0,.47,5.16,5.16,0,0,1-.09.6,5.59,5.59,0,0,1-.49,1.42,5.75,5.75,0,0,1-1,1.39,6.12,6.12,0,0,1-1.37,1,6.22,6.22,0,0,1-1.37.58l-.57.14-.45.07a3.65,3.65,0,0,1-.39,0v0L124,28A6.35,6.35,0,0,0,127.73,26.19Zm-2.28-6.58A3.54,3.54,0,0,1,126.68,22a3.18,3.18,0,0,1-.83,2.43,3.52,3.52,0,0,1-2.31,1.13A3.31,3.31,0,0,1,120,22.6a3.52,3.52,0,0,1,.68-2.49,3.19,3.19,0,0,1,2.22-1.27A3.52,3.52,0,0,1,125.45,19.61Zm-5.88-2.44a4.91,4.91,0,0,1,1.38-.71,4.26,4.26,0,0,1,.61-.16c.18,0,.34-.06.48-.07a1.74,1.74,0,0,1,.31,0h.11v0l-.4.08a3.74,3.74,0,0,0-.46.11l-.57.2a5.49,5.49,0,0,0-1.29.76,5.68,5.68,0,0,0-1.16,1.23,6.4,6.4,0,0,0-.77,1.52,6.75,6.75,0,0,0-.32,1.44c0,.22,0,.42,0,.59s0,.32,0,.45,0,.38,0,.38h0l0-.1a1.33,1.33,0,0,1-.06-.28,4.12,4.12,0,0,1-.07-.46,5.69,5.69,0,0,1,0-.6,5.89,5.89,0,0,1,.24-1.51,6.31,6.31,0,0,1,.77-1.62c.18-.23.38-.48.58-.69A7,7,0,0,1,119.57,17.17Zm-6.17-1.83a5.62,5.62,0,0,0,.6-4.15l0-.37h0a4,4,0,0,1,.11.4l.1.46c0,.18,0,.39.06.61a5.71,5.71,0,0,1-.13,1.5,5.86,5.86,0,0,1-.63,1.6,5.92,5.92,0,0,1-1.06,1.35,6.34,6.34,0,0,1-1.19.89c-.18.11-.36.2-.52.28l-.41.17-.37.13v0l.31-.16A6.23,6.23,0,0,0,113.4,15.34Zm-6.51-5.92a3.52,3.52,0,0,1,2.66.12,4.14,4.14,0,0,1,.62.35,4.56,4.56,0,0,1,.5.48,3.51,3.51,0,0,1,.67,1.15,3.2,3.2,0,0,1-.21,2.56,3.44,3.44,0,0,1-1.95,1.66,3.31,3.31,0,0,1-1.24.18,4.58,4.58,0,0,1-.63-.1,3.39,3.39,0,0,1-.61-.21A3.14,3.14,0,0,1,105,13.77a3.49,3.49,0,0,1,0-2.56,3.23,3.23,0,0,1,.74-1.1A3,3,0,0,1,106.89,9.42ZM102,11.92a6.93,6.93,0,0,1,.34-1.76,8.86,8.86,0,0,1,.4-.82,6.07,6.07,0,0,1,.49-.72A4.71,4.71,0,0,1,105,7.29c.17-.07.32-.14.45-.18A2.18,2.18,0,0,1,105.7,7l.11,0V7a3.28,3.28,0,0,0-.37.17,4.41,4.41,0,0,0-.42.22c-.15.09-.32.2-.5.33a5.48,5.48,0,0,0-1,1,5.74,5.74,0,0,0-.82,1.48,6.69,6.69,0,0,0-.37,1.67,7.05,7.05,0,0,0,0,1.48c0,.21.08.41.12.58s.08.31.12.43.13.37.13.37h0l0-.09a1.54,1.54,0,0,1-.13-.26,3.86,3.86,0,0,1-.17-.43,3.37,3.37,0,0,1-.17-.58A6,6,0,0,1,102,11.92ZM96.82,8.4a5.57,5.57,0,0,0-.46-4.17l-.14-.34h0s.08.12.21.35.13.26.21.42.14.36.21.58a5.52,5.52,0,0,1,.25,1.49,5.65,5.65,0,0,1-.21,1.71A6.12,6.12,0,0,1,96.23,10a6.43,6.43,0,0,1-.92,1.16,4.94,4.94,0,0,1-.44.39l-.35.28c-.21.15-.33.22-.33.22v0l.26-.24A6.24,6.24,0,0,0,96.82,8.4ZM87.7,6.5A3.26,3.26,0,0,1,89,4.28a3.5,3.5,0,0,1,2.6-.53,3.27,3.27,0,0,1,1.29.51,3.54,3.54,0,0,1,.94,1,3.26,3.26,0,0,1,.44,2.54,3.46,3.46,0,0,1-1.48,2.09,3.23,3.23,0,0,1-1.15.48,3.66,3.66,0,0,1-1.28,0A3.25,3.25,0,0,1,88.31,9,3.44,3.44,0,0,1,87.7,6.5Zm-2.85-.35a6.83,6.83,0,0,1,.18-.9,5,5,0,0,1,.29-.82,4.85,4.85,0,0,1,.86-1.28,3.62,3.62,0,0,1,.46-.43c.14-.12.27-.21.38-.29s.21-.12.27-.16l.09,0,0,0-.32.26c-.1.08-.21.19-.34.31a4.55,4.55,0,0,0-.4.45,5.05,5.05,0,0,0-.77,1.28,5.72,5.72,0,0,0-.41,1.64,6,6,0,0,0,.06,1.7,6.37,6.37,0,0,0,.42,1.43c.08.2.17.37.25.53l.23.39a3.28,3.28,0,0,0,.22.32l0,0-.07-.08c0-.05-.11-.11-.19-.22s-.17-.22-.27-.37a3.57,3.57,0,0,1-.3-.52A5.65,5.65,0,0,1,85,7.92,6.49,6.49,0,0,1,84.85,6.15ZM77.36,1.58l.29.29.31.36a5.64,5.64,0,0,1,.34.51,5.32,5.32,0,0,1,.61,1.38,5.63,5.63,0,0,1,.23,1.7,6.57,6.57,0,0,1-.28,1.69,6.38,6.38,0,0,1-.61,1.36c-.11.18-.22.34-.32.48l-.28.35c-.16.2-.26.3-.26.3l0,0,.19-.29A6.17,6.17,0,0,0,79,5.82a5.65,5.65,0,0,0-1.47-3.93l-.23-.29ZM69.85,4.9a3,3,0,0,1,.63-1.13A3.43,3.43,0,0,1,72.87,2.6a3.27,3.27,0,0,1,2.51.87,3.24,3.24,0,0,1,1.06,2.35,3.49,3.49,0,0,1-.92,2.39,3.37,3.37,0,0,1-2.23,1.08,3.2,3.2,0,0,1-2.36-.8,4,4,0,0,1-.81-1,3.57,3.57,0,0,1-.4-1.27A3.29,3.29,0,0,1,69.85,4.9Zm-2.94-.08a4.82,4.82,0,0,1,.52-1.46,3.59,3.59,0,0,1,.33-.52c.12-.15.22-.28.31-.38a2.36,2.36,0,0,1,.21-.22l.08-.08,0,0a3.31,3.31,0,0,0-.25.33c-.08.1-.16.24-.26.39s-.18.33-.28.53a5.48,5.48,0,0,0-.42,1.43,6,6,0,0,0,0,1.69,6.23,6.23,0,0,0,.48,1.64,6.66,6.66,0,0,0,.76,1.28c.13.17.26.32.37.45l.32.32.29.26,0,0-.08-.06a1.4,1.4,0,0,1-.24-.16L68.7,10a4.33,4.33,0,0,1-.42-.43,5.59,5.59,0,0,1-.86-1.28,6.33,6.33,0,0,1-.54-1.71,5.37,5.37,0,0,1,0-.9A6.11,6.11,0,0,1,66.91,4.82ZM58.48,4s.14.07.36.21l.39.28a5,5,0,0,1,.46.4,5.29,5.29,0,0,1,.93,1.19,5.89,5.89,0,0,1,.64,1.59,6.26,6.26,0,0,1,.15,1.71,6.51,6.51,0,0,1-.25,1.46c-.07.21-.13.39-.2.55a3.31,3.31,0,0,1-.18.41l-.18.35h0l.11-.34a6.22,6.22,0,0,0,.47-4.11,5.67,5.67,0,0,0-2.41-3.44l-.28-.22ZM52.36,7.85a3.48,3.48,0,0,1,2-1.72A3.31,3.31,0,0,1,57,6.34a3.22,3.22,0,0,1,1.6,2,3.43,3.43,0,0,1-.29,2.55,3.39,3.39,0,0,1-1.89,1.61,3.23,3.23,0,0,1-2.48-.2,3.44,3.44,0,0,1-1.73-1.88A3.21,3.21,0,0,1,52.36,7.85Zm-3.06.37a3.69,3.69,0,0,1,.2-.59,3.75,3.75,0,0,1,.2-.44,1.53,1.53,0,0,1,.15-.27l.06-.09h0s-.07.14-.16.38a4.44,4.44,0,0,0-.15.44c-.05.18-.1.37-.14.59a5.48,5.48,0,0,0-.05,1.48,5.75,5.75,0,0,0,.42,1.64,6.27,6.27,0,0,0,1.93,2.52l.48.34.38.23.35.18v0l-.1,0a1.34,1.34,0,0,1-.27-.1l-.42-.19a3.73,3.73,0,0,1-.52-.31,5.93,5.93,0,0,1-1.15-1,6.44,6.44,0,0,1-1-1.51,6.17,6.17,0,0,1-.28-.86,7.13,7.13,0,0,1-.14-.87A5,5,0,0,1,49.3,8.22Zm-8.49,2.89.4.11.44.16a5.42,5.42,0,0,1,.54.27,6.06,6.06,0,0,1,1.21.92,5.7,5.7,0,0,1,1,1.39A6,6,0,0,1,45,15.57a6.09,6.09,0,0,1,.12,1.48c0,.21,0,.41,0,.58S45,18,45,18.09l-.08.38h0l0-.35A7,7,0,0,0,45,16.06a6.2,6.2,0,0,0-.65-2A5.76,5.76,0,0,0,43,12.32a5.36,5.36,0,0,0-1.83-1l-.34-.15Zm-5,5.24a2.78,2.78,0,0,1,.19-.64,3.33,3.33,0,0,1,.33-.58,3.57,3.57,0,0,1,1-1,3.63,3.63,0,0,1,1.29-.51,3.14,3.14,0,0,1,1.33.05,3.24,3.24,0,0,1,2.06,1.55,3.44,3.44,0,0,1,.35,2.53,3.76,3.76,0,0,1-.51,1.14,3.16,3.16,0,0,1-.92.9,3,3,0,0,1-1.19.45,2.76,2.76,0,0,1-.64,0,3.26,3.26,0,0,1-.62-.06,3.41,3.41,0,0,1-2.14-1.39A3.22,3.22,0,0,1,35.84,16.35ZM33,16.83a4.13,4.13,0,0,1,.08-.47c0-.13.07-.23.09-.3l0-.1h0s0,.15-.06.41,0,.28,0,.46,0,.38,0,.6a5.4,5.4,0,0,0,.33,1.46,5.9,5.9,0,0,0,.82,1.49,6.18,6.18,0,0,0,1.21,1.19,6.37,6.37,0,0,0,1.27.75,5,5,0,0,0,.55.21l.44.13a3.06,3.06,0,0,0,.38.09v0H38a1.21,1.21,0,0,1-.29,0l-.45-.08c-.18-.05-.38-.1-.59-.18a5.81,5.81,0,0,1-1.36-.69,6.44,6.44,0,0,1-1.29-1.22,6.65,6.65,0,0,1-.48-.77,5.66,5.66,0,0,1-.35-.81A4.73,4.73,0,0,1,33,17.45,3,3,0,0,1,33,16.83Zm-7.53,5.54.41,0a4.53,4.53,0,0,1,.46,0,6,6,0,0,1,.6.13,5.54,5.54,0,0,1,1.38.57,6.17,6.17,0,0,1,1.33,1.09,6.41,6.41,0,0,1,.95,1.42,6.87,6.87,0,0,1,.49,1.42c0,.21.08.41.11.58a4.53,4.53,0,0,1,0,.46,2.87,2.87,0,0,1,0,.39h0l-.06-.35a6.48,6.48,0,0,0-1.6-3.85,5.54,5.54,0,0,0-3.75-1.83l-.36-.06Zm-3.33,5a3.3,3.3,0,0,1,.74-1.18,3.48,3.48,0,0,1,2.41-1.1,3.23,3.23,0,0,1,2.39,1,3.4,3.4,0,0,1,1,2.35,3.25,3.25,0,0,1-.88,2.34,3.11,3.11,0,0,1-1.05.73,3.17,3.17,0,0,1-1.21.3A3.45,3.45,0,0,1,23.09,31,3.3,3.3,0,0,1,22,28.68,3.54,3.54,0,0,1,22.15,27.36Zm-2.86,1.69v-.11h0a2.94,2.94,0,0,0,0,.4,3.19,3.19,0,0,0,.08.46,6.12,6.12,0,0,0,.17.59,5.59,5.59,0,0,0,.68,1.33A5.48,5.48,0,0,0,21.47,33a6.36,6.36,0,0,0,2.87,1.27l.58.06h.45c.25,0,.39,0,.39,0v0l-.11,0c-.06,0-.16,0-.29,0l-.45,0a3.11,3.11,0,0,1-.6,0,5.38,5.38,0,0,1-1.49-.33,6.41,6.41,0,0,1-1.55-.86,6.55,6.55,0,0,1-.66-.63,5.1,5.1,0,0,1-1.17-2.12,4.05,4.05,0,0,1-.13-.62c0-.19,0-.35,0-.48A2.55,2.55,0,0,1,19.29,29.05ZM13.8,37a4.34,4.34,0,0,1,.47-.07,5.53,5.53,0,0,1,.61,0,6,6,0,0,1,1.48.22,5.72,5.72,0,0,1,1.55.72A6.18,6.18,0,0,1,19.19,39,6.7,6.7,0,0,1,20,40.22a5.71,5.71,0,0,1,.24.54c.06.17.12.31.15.43s.11.37.11.37h0l-.14-.32a6.31,6.31,0,0,0-2.5-3.33,5.56,5.56,0,0,0-4.08-.85l-.37,0v0A3.62,3.62,0,0,1,13.8,37Zm-2,4.41a3.56,3.56,0,0,1,2.08-1.66,3.31,3.31,0,0,1,1.29-.09,3.11,3.11,0,0,1,1.25.46,3.39,3.39,0,0,1,1,.9A3.46,3.46,0,0,1,18,42.17a3.16,3.16,0,0,1-.28,2.46,3.29,3.29,0,0,1-1.93,1.57A3.52,3.52,0,0,1,13.22,46a3.18,3.18,0,0,1-1.67-1.95A3.43,3.43,0,0,1,11.83,41.4Zm1.91,7.66A6.23,6.23,0,0,1,12,48.61a8.78,8.78,0,0,1-.79-.44,6.34,6.34,0,0,1-.69-.54,4.93,4.93,0,0,1-1-1.22,3.62,3.62,0,0,1-.27-.57c-.07-.17-.12-.33-.16-.46s-.06-.23-.08-.3L9,45h0s0,.14.15.39.11.26.19.43.19.33.31.52a5.31,5.31,0,0,0,1,1.12,5.81,5.81,0,0,0,1.43.91,5.9,5.9,0,0,0,1.63.47,6.25,6.25,0,0,0,1.48,0l.58-.08a2.76,2.76,0,0,0,.43-.1l.38-.1v0l-.09.05-.27.11-.43.15a4,4,0,0,1-.59.13A5.84,5.84,0,0,1,13.74,49.06Z"/><path class="cls-1" d="M13.64,45.17a2.45,2.45,0,0,0,1.85.16,2.42,2.42,0,1,0-3-1.58A2.29,2.29,0,0,0,13.64,45.17Zm-.5-3.09a1.88,1.88,0,1,1,3.29,1.81,1.91,1.91,0,0,1-1.09.89,1.89,1.89,0,0,1-1.43-.13,1.86,1.86,0,0,1-.77-2.57Z"/><path class="cls-1" d="M23.7,30.28a2.43,2.43,0,0,0,1.75.6,2.53,2.53,0,0,0,1.65-.74A2.48,2.48,0,0,0,27,26.72a2.39,2.39,0,0,0-3.45.1,2.36,2.36,0,0,0-.68,1.78A2.39,2.39,0,0,0,23.7,30.28ZM24,27.16a1.86,1.86,0,0,1,2.67-.08,1.91,1.91,0,0,1,.07,2.66,1.94,1.94,0,0,1-2.64.1,1.84,1.84,0,0,1-.1-2.68Z"/><path class="cls-1" d="M38.68,19.35A2.37,2.37,0,0,0,40.47,19a2.42,2.42,0,0,0,1-1.49,2.48,2.48,0,0,0-.27-1.83,2.42,2.42,0,0,0-1.5-1.11,2.38,2.38,0,0,0-1.87.35,2.44,2.44,0,0,0-1.1,1.54,2.32,2.32,0,0,0,.37,1.83A2.43,2.43,0,0,0,38.68,19.35Zm-.49-4a1.92,1.92,0,0,1,1.44-.27A1.84,1.84,0,0,1,40.8,16,1.91,1.91,0,0,1,41,17.39a1.88,1.88,0,0,1-.81,1.18,1.93,1.93,0,0,1-2.6-.57A1.86,1.86,0,0,1,38.19,15.39Z"/><path class="cls-1" d="M56.17,11.62a2.33,2.33,0,0,0,.81-.47,2.29,2.29,0,0,0,.57-.71,2.45,2.45,0,0,0,.2-1.83,2.44,2.44,0,0,0-2.1-1.73,2.58,2.58,0,0,0-1,.13,2.39,2.39,0,0,0-1.55,3.09A2.45,2.45,0,0,0,56.17,11.62Zm-1.29-4.1a1.84,1.84,0,0,1,2.38,1.23A1.92,1.92,0,0,1,56,11.09a1.89,1.89,0,0,1-2.37-1.18A1.87,1.87,0,0,1,54.88,7.52Z"/><path class="cls-1" d="M73.23,8.37a2.47,2.47,0,0,0,.9-.26,2.28,2.28,0,0,0,.73-.54,2.51,2.51,0,0,0,.65-1.73,2.43,2.43,0,0,0-.78-1.7,2.52,2.52,0,0,0-.82-.49,2.33,2.33,0,0,0-1-.12,2.39,2.39,0,0,0-2.27,2.6A2.47,2.47,0,0,0,73.23,8.37ZM73,4.07a1.77,1.77,0,0,1,1.39.47A1.86,1.86,0,0,1,75,5.85a1.9,1.9,0,0,1-.5,1.35,2,2,0,0,1-1.27.62,1.9,1.9,0,0,1-2-1.73A1.88,1.88,0,0,1,73,4.07Z"/><path class="cls-1" d="M90.57,9.43a2.12,2.12,0,0,0,.94,0,2.56,2.56,0,0,0,.84-.34A2.5,2.5,0,0,0,93.4,7.54a2.37,2.37,0,0,0-.34-1.84A2.28,2.28,0,0,0,92.39,5a2.55,2.55,0,0,0-.92-.35,2.39,2.39,0,0,0-2.85,2A2.48,2.48,0,0,0,90.57,9.43ZM89.2,6.72a1.87,1.87,0,0,1,2.21-1.51,1.85,1.85,0,0,1,1.5,2.22,1.93,1.93,0,0,1-2.2,1.47A1.89,1.89,0,0,1,89.2,6.72Z"/><path class="cls-1" d="M107.09,14.77a2.52,2.52,0,0,0,1.81.09,2.41,2.41,0,0,0,1.4-1.21,2.31,2.31,0,0,0,.13-1.85,2.35,2.35,0,0,0-1.28-1.42,2.4,2.4,0,0,0-3.24,1.19A2.46,2.46,0,0,0,107.09,14.77Zm-.65-3a1.91,1.91,0,0,1,3.14-.47A2.06,2.06,0,0,1,110,12a1.88,1.88,0,0,1-1.18,2.38,1.83,1.83,0,0,1-.7.1,2,2,0,0,1-.71-.17A1.89,1.89,0,0,1,106.44,11.81Z"/><path class="cls-1" d="M121.77,24.06a2.43,2.43,0,1,0-.37-3.37A2.43,2.43,0,0,0,121.77,24.06Zm.09-3a1.89,1.89,0,1,1,.28,2.62A1.89,1.89,0,0,1,121.86,21.05Z"/><path class="cls-1" d="M137,37.28a2.39,2.39,0,0,0,.55-3.41,2.36,2.36,0,0,0-.72-.69,2.65,2.65,0,0,0-.91-.31,2.39,2.39,0,0,0-1.8.49,2.52,2.52,0,0,0-.92,1.6,2.54,2.54,0,0,0,.05.91,2.81,2.81,0,0,0,.38.85A2.47,2.47,0,0,0,137,37.28Zm-2.9-.85a1.92,1.92,0,0,1,.38-2.61,1.89,1.89,0,1,1,2.23,3A1.88,1.88,0,0,1,134.13,36.43Z"/><path class="cls-1" d="M143.33,53.23a2.51,2.51,0,0,0,1.85.07A2.37,2.37,0,0,0,146.55,52a2.5,2.5,0,0,0,0-1.9,2.44,2.44,0,0,0-1.31-1.38,2.43,2.43,0,0,0-3.16,1.35,2.43,2.43,0,0,0,0,1.82A2.4,2.4,0,0,0,143.33,53.23Zm.29-3.91a1.88,1.88,0,1,1,1.39,3.5,1.88,1.88,0,0,1-1.39-3.5Z"/><path class="cls-1" d="M150.26,66.48a2.39,2.39,0,0,0-1.81-.45,2.46,2.46,0,0,0-1.58,1,2.35,2.35,0,0,0,.42,3.33,2.47,2.47,0,0,0,1.76.54,2.39,2.39,0,0,0,1.66-.89,2.45,2.45,0,0,0,.48-1.83A2.5,2.5,0,0,0,150.26,66.48ZM149,70.35a1.94,1.94,0,0,1-2.1-1.64,1.91,1.91,0,0,1,1.63-2.1,1.88,1.88,0,0,1,.47,3.74Z"/><path class="cls-1" d="M106.43,82.92c-.65-3-6.56-12.31-6.56-12.31,5,1.61,14.93-1,18.15-4.65s.38-10.37.38-10.37c.81-.47,1.94-2.93,1.94-2.93-2-5.06-13.63-15.36-22.09-22.92-7.62-6.83-14.47-5-14.47-5-6.91-6.31-9.65-6.9-14.35-5a9.57,9.57,0,0,0-5.52,6.83s-2.21.61-6.68,2S45.77,33.66,46.12,37a4.07,4.07,0,0,0,3.08,3.49c-.77,1.09-1.31,1.87-1.36,2a1,1,0,0,0,.1.83A12.9,12.9,0,0,0,46,52.85L40.32,66.1l-.63.32a2.6,2.6,0,0,0-.9-.38c-.78-.2-1.15.67-1.3,1.18-3,.79-2.87.52-3.9,3.8-1.09,3.47,1.25,3.84,2.48,4a.78.78,0,0,0,.39-.06c0,.73,0,1.2,0,1.2,1.09,1.36,2,.37,2.39,0a16.45,16.45,0,0,0,.34-3.92c.42-.54.84-1.11,1.28-1.65a42.19,42.19,0,0,0,3.7,5c1.47,1.18,2.51-1.1,2.51-1.1l.55.24a1.19,1.19,0,0,0,1.22-.47c.46-.57,2.35-1.33,2-.52s.3,1.26.52,1.85,2.4,6.18,2.13,7.3,1,1.36,1,1.36A1.65,1.65,0,0,1,54,85.61,5.53,5.53,0,0,0,53.79,88a19.71,19.71,0,0,0-14.18,8.76c-6.29,9.94-1.86,24,9.91,31.48s26.4,5.43,32.69-4.51c4.07-6.42,3.63-14.57-.34-21.54,3.15.87,7,1.8,7.88,1.7,1.52,1.62,3.37,2.34,4.58,1.72,1-.11,2.51-.3,4.17-.55a37.47,37.47,0,0,0,2.75,3.48c7.5,8.32,16.46,10.72,20,5.35s0-16-7.26-24.52A28.73,28.73,0,0,0,106.43,82.92ZM46.49,56.48s.29,2.28.56,4.83c-1.22,1-2.6,2.08-4,3ZM47.37,68c-.41,1.58-.47,1.52-.47,1.52s-.43-.67-1.15.65-.91,1.68-.63,2.39a1.22,1.22,0,0,1-.26.45l-3-3.82a41.32,41.32,0,0,1,5.55-2.71A6.79,6.79,0,0,1,47.37,68Zm64.75,22.74s-1.88-2.9-3.34-3.1C108.78,87.64,111.22,87.23,112.12,90.74Zm-6.29-.06A3.07,3.07,0,0,1,107,89.33s3.25,1.14,3.54,2.87L108,94.26s-1.78-1.84-2.76-1.7A4.64,4.64,0,0,1,105.83,90.68Zm7.18,1c.36.14.6,1.18.6,1.18-4.33,1.54-11,7.63-11,7.63A48.18,48.18,0,0,1,113,91.67Zm6-31s-1.33-4-2.14-4.77a1.93,1.93,0,0,0,1.33-.2A14.46,14.46,0,0,1,119,60.71Zm-2.9-13.42s3.72,4.24,3.85,5.22-1.55,2.71-1.55,2.71a6.81,6.81,0,0,0,.85-2.15,5.18,5.18,0,0,0-1.56-3.3C116.9,49.23,115.73,48.58,116.12,47.29ZM102.81,34.64c.53.48,3.44,2.92,4.64,4.06A46.15,46.15,0,0,1,112,43.36c.58.93,1.71,3-1.66,1.8a15.24,15.24,0,0,0-2.6-4.62c-2-2.5-4.8-4.18-5.9-5.23-.74-.69-3.09-2.66-3.58-5C98.24,30.34,101.26,33.22,102.81,34.64Zm-4.33,52.6a5.55,5.55,0,0,1,1-1.18c.62.8.94,1.42.62,1.87a2.61,2.61,0,0,0-.47,1.23l-1.74-.78A5.75,5.75,0,0,1,98.48,87.24Zm-2.25-5.5a6.21,6.21,0,0,0-2.11,2A8.4,8.4,0,0,0,93,86.26L88.1,84.15c.53-1.67,4.27-3.4,4.9-4.23s-.66-1.85-5-1.69c-3.92.14-6.59-3.09-9.08-2.82A44.75,44.75,0,0,0,79,67.93a10.56,10.56,0,0,1,5.21.77c1.92,5.64,9.65,8.78,11.6,12.38C96,81.3,96.1,81.52,96.23,81.74ZM92.8,91.31c-2.22-2.42-2.41-3-1.8-3.66s1.82-.08,1.82-.08A15.07,15.07,0,0,0,92.8,91.31Zm-2.87-3.76-1-1.38,1.85.66ZM81.6,82.11,77.21,81a6.53,6.53,0,0,1,.47-1.08,9.46,9.46,0,0,0,.75-2A10.88,10.88,0,0,1,81.6,82.11ZM74.45,19.2a7.84,7.84,0,0,1,4.22,2.16c-2.78-.33-3.1-.14-5-.9-2.26-.92-6,.7-6,.7C68.82,20.39,72.07,19,74.45,19.2ZM63.22,27.29A15.09,15.09,0,0,1,67,26.17l5.47-.86,5.62-.41c2.72.1,5.31.35,5.64.37h0c1,.08,3-.51,5.18,0,1.43.31,5,1.73,6.18,2.92s.49,5.11.49,5.11-1.44-6.13-3.11-3.38c-.56.94-2.66-3-5-2.54a11.45,11.45,0,0,1-6-.13A3,3,0,0,0,79,28a4.65,4.65,0,0,0-3-1.7,15.28,15.28,0,0,0-4.37.07l1.83.66a5.55,5.55,0,0,1-3.71.08c-1.75-.48-4.53.6-6,1a50.66,50.66,0,0,1-5.62.65A21.25,21.25,0,0,0,63.22,27.29ZM48.56,33.66c2-2.09,7-4.19,7-4.19a2.57,2.57,0,0,0-.88,1.85,2.6,2.6,0,0,0-2.34.58,2.27,2.27,0,0,0-.77,2.44C51.14,32.59,48.56,33.66,48.56,33.66Zm26.7,6.27a8.49,8.49,0,0,0-6.7,3.74c-2.4,3.66-8.26,8.16-11.78,9.86s-4.44,3-6.51,4.95c-.3.29-.71.66-1.18,1.08-.45-4.56-1-10.09-1-11.46,0-1.91,1.48-3.65,2-3.61S56,36.9,57.57,35a1.52,1.52,0,0,0,.2-2,11,11,0,0,1,5.27.13c-.14,2.39,3.2,5.24,3.93,4.14.2-.29.71-1.08,1-1.11.84-.08.87,0,1.87,1.17.61.7,1.59.4,2.18,1a3.76,3.76,0,0,0,1.54,1.12C74.56,39.76,75.26,39.93,75.26,39.93Zm-3.75,4.76c-.7.6-.9-.19-2.19,1.49-1.56,2-1.86,2.61-2.77,3-2.4,1-1.59-.68-1.59-.68a55.68,55.68,0,0,0,3.89-4.17c1-1.4,2.18-3.37,4.25-3,0,0,.47,2.16.54,3.13,0,0-.84-1.87-1.52-1.67S72.1,44.18,71.51,44.69ZM54.91,56C53,57.26,49.8,59.8,49.8,59.8a27,27,0,0,1,4.53-4c2.1-1.3,4.57-2.38,6.4-3.69,0,0-3.28,5.25-4.11,4.7S57.43,54.36,54.91,56ZM49.19,69.09s.59-.54.45-3.53c4-1.65,8.16-3.28,9.65-4.28,3-2,10.51-7.69,13.17-9.74s6.15-1.95,8.15-.17,5.81,1.72,5.81,1.72,3.13,2.79,5.9,2.12,2.45.9,2.45.9-17,.21-21.89,2.15-3.59,11.37-4.17,12.92.38,2.78.16,5.17c-.05.58-.14,1.41-.24,2.38L54.55,75.06c.24-.69-1-2.43-1-2.43s.41-.4.81-.88-.35-2-.91-2.54S49.19,69.09,49.19,69.09Zm12,19c-.84-2-1.42-3.4-1.42-3.4s3.26,1.87,7.74,4.41a5.1,5.1,0,0,1-.13.68A28.08,28.08,0,0,0,61.19,88.05Zm3.67,6.36a6.38,6.38,0,0,0-.58,1.31L63.6,94Zm-2.13,10-.2.28a2.63,2.63,0,0,0-.4.28,3.65,3.65,0,0,0-.45.52L57.76,93.44a9.33,9.33,0,0,1,2.45.22s1.85,4.47,2.86,7.12A6.29,6.29,0,0,0,62.73,104.44ZM60.16,90.38c-.37-.95-.73-1.89-1.06-2.77-.17-.44-.33-.87-.52-1.25a5.53,5.53,0,0,0-.67-1,3.16,3.16,0,0,0-.76-.68,2.86,2.86,0,0,0-.71-.32,1.85,1.85,0,0,0-.68-.07v-.06a1.74,1.74,0,0,1,.72,0,2.84,2.84,0,0,1,.8.26,3.07,3.07,0,0,1,.88.66,5.65,5.65,0,0,1,.78,1l.33.62c.1.21.18.43.28.64.18.44.38.88.56,1.35s.37.93.56,1.39.35,1,.53,1.41.32.93.48,1.38c.32.89.56,1.74.8,2.46s.37,1.34.5,1.77.17.68.17.68l-.06,0ZM65,79.11l-9.24-2.4,0-.11.84,0c.53,0,1.29.08,2.18.19.45.06.93.11,1.44.2s1.05.16,1.59.28,1.13.2,1.69.34l1.74.41,1.71.47c.57.15,1.12.34,1.65.5s1.05.35,1.54.52.94.35,1.36.51c.84.33,1.52.64,2,.87l.75.38,0,.11Zm3.36,2.33c-.12,1-.24,2.14-.36,3.2l-10.59-6Zm-8.5,1.62.05-.09,1,.38c.66.25,1.59.63,2.68,1.13.54.24,1.13.51,1.75.81s1.27.61,1.92,1,1.36.69,2,1.08l2.07,1.15,2,1.2c.68.4,1.32.82,2,1.22s1.23.79,1.8,1.17,1.1.75,1.59,1.1c1,.69,1.78,1.3,2.33,1.73s.86.71.86.71l-.06.09L70.84,89.43ZM53.27,78.3l-1.34-3.69.07,0a7.63,7.63,0,0,1,.74,1,11.31,11.31,0,0,1,.61,1.12c.09.21.21.42.29.65l.27.68.24.69c.08.23.14.46.2.68a12.41,12.41,0,0,1,.27,1.25,8,8,0,0,1,.1.91,2.32,2.32,0,0,1,0,.35l-.06,0Zm-8.76,38.93-.55-.71c-.18-.23-.38-.51-.6-.85-.12-.16-.24-.34-.36-.52l-.37-.61c-.27-.41-.51-.89-.78-1.39s-.49-1.05-.7-1.63a13,13,0,0,1-.55-1.83,13.89,13.89,0,0,1-.3-2,11.77,11.77,0,0,1,0-2,11.44,11.44,0,0,1,.35-1.87A12.52,12.52,0,0,1,42,100.8a12.9,12.9,0,0,1,1.42-1.92,7,7,0,0,1,.64-.65l.07.09s-.19.27-.49.76c-.15.24-.31.55-.5.89s-.37.74-.56,1.17-.37.91-.54,1.41-.31,1-.43,1.6a13.61,13.61,0,0,0-.23,1.73,14.72,14.72,0,0,0,.24,3.58c.13.59.25,1.17.43,1.73s.36,1.09.54,1.6.39,1,.6,1.42.37.84.55,1.2l.45.93c.26.51.4.82.4.82Zm8.65,5.3c-9-5.67-12.55-16-8-23.19a13.67,13.67,0,0,1,9.64-6A146.2,146.2,0,0,0,59.67,108a2.84,2.84,0,0,0-1.19.62A2.93,2.93,0,1,0,63.35,111l.95-.89A2.91,2.91,0,0,0,66.74,106l.7-.64a1.78,1.78,0,0,0,0-.3,2,2,0,0,0,.86.54c.7.16,4.61-1.32,5.23-1.77.25-.19,1.1-.94,2-1.76,4.32,5.58,5.38,12.55,2.07,17.78C73.05,127,62.12,128.2,53.16,122.53Zm29.08-14.29A16.21,16.21,0,0,1,83,112a13.66,13.66,0,0,1-.41,3.92c-.09.31-.2.62-.3.93l-.17.45c-.06.15-.14.29-.21.43l-.43.85c-.15.28-.34.52-.5.78s-.33.52-.52.75-.39.45-.59.66A10.43,10.43,0,0,1,78.63,122c-.2.18-.39.37-.6.53l-.63.45a13.37,13.37,0,0,1-1.22.8l-1.16.65c-.37.2-.75.34-1.09.5l-1,.41c-.3.12-.58.2-.84.29-.5.17-.9.28-1.18.36l-.41.12-.06-.13,1.48-.7c.24-.12.51-.23.78-.39l.88-.5c.31-.19.66-.36,1-.59l1.06-.72a10.52,10.52,0,0,0,1.09-.86l.57-.46c.19-.16.35-.35.54-.53a11.68,11.68,0,0,0,1.05-1.16l.5-.64a8.18,8.18,0,0,0,.45-.69,11.17,11.17,0,0,0,1.35-3.12,12.09,12.09,0,0,0,.31-3.5,14.61,14.61,0,0,0-.62-3.48,8,8,0,0,0-.27-.83l-.29-.81c-.23-.52-.44-1-.7-1.55a28.44,28.44,0,0,0-1.57-2.8c-.57-.86-1.11-1.66-1.66-2.37A39.49,39.49,0,0,0,73.62,97c-.72-.76-1.16-1.16-1.16-1.16l.1-.11.35.25c.23.17.58.41,1,.74s.91.75,1.46,1.26,1.14,1.09,1.75,1.78a24.48,24.48,0,0,1,1.89,2.3,22.25,22.25,0,0,1,1.79,2.84A18.11,18.11,0,0,1,82.24,108.24Zm-2.57-9.38c-.26-.33-.53-.66-.81-1a16,16,0,0,0-.92-3c3.57,2,7,3.84,9.73,5.23,0,.1,0,.21.08.31A64.77,64.77,0,0,0,79.67,98.86Zm-3-9.31c.09-1.2-.25-3.58,0-6l8.77,2.23L88.9,96.48ZM91.5,96.91l-2.32-7.2c.48.68,3.72,3.6,3.72,3.6.55.84.14,3.27.14,3.27C92.6,96.2,91.5,96.91,91.5,96.91ZM95,105a3.11,3.11,0,0,0,.4-1.88c.63.1,1.27.17,1.9.22.26.42.53.83.81,1.24C97.09,104.71,96,104.85,95,105Zm4.62-6.31-3.41-.55-3.41-.62v-.06A7.65,7.65,0,0,1,94,97.32a11,11,0,0,1,1.12,0c.2,0,.41,0,.62.07l.64.09.63.12c.21,0,.42.11.61.15a11.24,11.24,0,0,1,1.07.35,6.28,6.28,0,0,1,1,.47Zm.62-1.11-1.41-.79a17.13,17.13,0,0,1-1.26-7.23L100,90.78a5.35,5.35,0,0,0,.34.54C101,92.25,100.64,95.47,100.27,97.55Zm1.33,4.1-.4-.62h.22a4.06,4.06,0,0,0,.55.27l.32-.28,1.14-.07,1.06.4Zm1.43,1.58c.77-.06,1.45-.15,2-.22a6,6,0,0,0,1.89-.6l.11,0a16.61,16.61,0,0,1-3.67,1.16C103.24,103.48,103.13,103.36,103,103.23Zm1.1,1.28-.38-.43a11.4,11.4,0,0,0,4.13-1.57l0-.05a.82.82,0,0,0,.2-.12,1,1,0,0,0,.27-.87c.88-.61,1.89-1.32,2.68-1.93a1.13,1.13,0,0,0,1.08-.14c.55-.48.32-1.65-.52-2.6a3.76,3.76,0,0,0-.6-.54l1.12-.79-.91-1.25c.34-.2.64-.37.91-.51,4.56,5.69,6.58,11.27,5.71,16.29C117.21,113.7,109.84,110.86,104.13,104.51ZM114.5,92.92A22.22,22.22,0,0,1,116,94.71c.29.39.61.82.91,1.29s.63,1,.92,1.5.61,1.08.87,1.67.52,1.2.75,1.82.41,1.26.56,1.91c.08.31.14.64.19,1s.08.64.12,1,0,.64,0,.94,0,.62,0,.91-.06.59-.13.86a7.43,7.43,0,0,1-.23.79,5,5,0,0,1-.65,1.27c-.13.17-.24.34-.36.47l-.36.35a1.58,1.58,0,0,1-.3.24l-.25.16-.19.13-.08-.08.16-.17a3,3,0,0,0,.43-.47l.27-.37c.08-.14.16-.3.26-.47a5.7,5.7,0,0,0,.42-1.21,7.81,7.81,0,0,0,.18-1.51,11.27,11.27,0,0,0-.12-1.71,17.27,17.27,0,0,0-.37-1.79c-.16-.6-.36-1.2-.57-1.8a38.52,38.52,0,0,0-3-6.31c-1-1.65-1.69-2.69-1.69-2.69l.09-.06.17.16C114.13,92.56,114.3,92.71,114.5,92.92Z"/></g></g></svg>